<svg width="70" height="70" viewBox="0 0 70 70" fill="none" xmlns="http://www.w3.org/2000/svg">
<path fill-rule="evenodd" clip-rule="evenodd" d="M61.7212 6.84173C61.6878 6.69235 61.6132 6.55529 61.506 6.44606C61.3988 6.33683 61.2631 6.25978 61.1144 6.22362L58.8585 5.67538L58.0314 3.50661C57.9769 3.36357 57.8834 3.23864 57.7615 3.14595C57.6397 3.05327 57.4944 2.99653 57.342 2.98214C57.1895 2.96776 57.0362 2.99632 56.8991 3.06457C56.7621 3.13283 56.6469 3.23807 56.5666 3.36839L55.3484 5.34438L53.0299 5.46087C52.8771 5.46854 52.7294 5.51882 52.6036 5.60604C52.4778 5.69326 52.379 5.81393 52.3182 5.95441C52.2574 6.09489 52.2371 6.24957 52.2597 6.40096C52.2822 6.55236 52.3467 6.69442 52.4457 6.8111L53.9492 8.58038L53.3437 10.8213C53.3038 10.9691 53.306 11.1251 53.3501 11.2717C53.3942 11.4182 53.4784 11.5496 53.5932 11.6508C53.7081 11.752 53.8489 11.819 53.9999 11.8444C54.1508 11.8697 54.3059 11.8523 54.4474 11.7941L56.5939 10.9117L58.5382 12.1803C58.6664 12.264 58.8154 12.31 58.9685 12.3134C59.1215 12.3167 59.2724 12.2772 59.4042 12.1993C59.5359 12.1213 59.6432 12.008 59.7139 11.8723C59.7846 11.7366 59.816 11.5837 59.8044 11.4311L59.6285 9.11632L61.4354 7.6593C61.5546 7.56325 61.6445 7.43578 61.695 7.2913C61.7455 7.14682 61.7545 6.99109 61.7212 6.84173ZM24.9182 10.4072C24.1285 10.2314 23.3012 10.3765 22.6184 10.8106C21.9356 11.2447 21.4532 11.9323 21.2774 12.722L19.2201 21.9627L21.919 20.2466C21.961 20.2041 22.0076 20.1662 22.0578 20.1338L26.5573 17.2801L27.2308 14.0586C27.4082 13.2677 27.2643 12.4388 26.8306 11.7541C26.3969 11.0693 25.709 10.5849 24.9182 10.4072ZM67.0183 14.7989C67.8343 14.7989 68.4957 14.1375 68.4957 13.3215C68.4957 12.5056 67.8343 11.8442 67.0183 11.8442C66.2024 11.8442 65.5409 12.5056 65.5409 13.3215C65.5409 14.1375 66.2024 14.7989 67.0183 14.7989ZM18.4009 24.4275L14.7693 26.7365L19.2039 33.7111L26.6906 28.9511L22.2559 21.9764L18.4597 24.3903C18.4406 24.404 18.4209 24.4159 18.4009 24.4275ZM6.1481 27.1398C5.714 26.457 5.56889 25.6298 5.74469 24.84C5.9214 24.0507 6.40397 23.3637 7.08654 22.9298C7.76911 22.4958 8.59595 22.3503 9.38565 22.5252L16.0143 24.0004L13.3508 25.6938C13.2948 25.7137 13.2411 25.7396 13.1907 25.7711L8.65598 28.6137L8.05948 28.4808C7.26974 28.305 6.5822 27.8226 6.1481 27.1398ZM35.5358 14.141C35.7803 14.1412 36.024 14.1682 36.2626 14.2214C36.6879 14.315 37.0903 14.4919 37.4467 14.742C37.8031 14.9921 38.1064 15.3104 38.339 15.6784L40.9953 19.856L28.0754 28.0709L23.6406 21.0963L33.7638 14.6597C34.2929 14.3214 34.9078 14.1414 35.5358 14.141ZM13.3853 27.6169L3.04052 34.1943C2.2995 34.6667 1.77611 35.4137 1.58516 36.2715C1.39421 37.1293 1.5513 38.0278 2.02197 38.7699L4.678 42.9475L17.8201 34.5915L13.3853 27.6169ZM43.2709 67.0207H32.6527V42.3108H46.5855V63.706C46.5845 64.5848 46.235 65.4273 45.6136 66.0487C44.9922 66.6701 44.1497 67.0196 43.2709 67.0207ZM9.38811 63.706C9.38912 64.5848 9.73866 65.4273 10.3601 66.0487C10.9814 66.6701 11.8239 67.0196 12.7027 67.0207H20.585V42.3108H9.3877L9.38811 63.706ZM31.0117 42.3108H22.2256V67.0205H31.0117V42.3108ZM56.5783 33.2183L56.9707 30.9304C56.9965 30.7796 56.9797 30.6245 56.922 30.4827C56.8643 30.3409 56.7681 30.2181 56.6443 30.1281C56.5205 30.0381 56.3739 29.9846 56.2213 29.9736C56.0686 29.9625 55.9159 29.9944 55.7804 30.0657L53.7258 31.1458L51.6712 30.0657C51.5357 29.9944 51.3829 29.9625 51.2303 29.9735C51.0776 29.9845 50.931 30.038 50.8071 30.128C50.6833 30.218 50.5871 30.3408 50.5294 30.4826C50.4717 30.6244 50.4549 30.7795 50.4808 30.9304L50.8733 33.2183L49.2109 34.8385C49.1013 34.9454 49.0238 35.0808 48.9871 35.2294C48.9504 35.378 48.9561 35.5339 49.0034 35.6795C49.0507 35.825 49.1378 35.9545 49.2548 36.0531C49.3719 36.1518 49.5142 36.2157 49.6656 36.2377L51.9625 36.5717L52.9898 38.6531C53.0575 38.7904 53.1623 38.906 53.2924 38.9869C53.4224 39.0677 53.5724 39.1106 53.7255 39.1106C53.8786 39.1106 54.0286 39.0677 54.1586 38.9869C54.2887 38.906 54.3935 38.7904 54.4612 38.6531L55.4883 36.5717L57.7852 36.2377C57.9367 36.2157 58.079 36.1517 58.196 36.0531C58.313 35.9544 58.4001 35.825 58.4474 35.6794C58.4947 35.5338 58.5003 35.3779 58.4636 35.2294C58.4269 35.0808 58.3494 34.9454 58.2398 34.8385L56.5783 33.2183ZM63.7571 21.3674L66.0129 21.9156C66.1616 21.9518 66.2972 22.0288 66.4044 22.138C66.5116 22.2472 66.5862 22.3842 66.6196 22.5336C66.653 22.6829 66.6439 22.8386 66.5935 22.9831C66.543 23.1276 66.4532 23.2551 66.3341 23.3511L64.5273 24.8082L64.703 27.1227C64.7146 27.2753 64.6833 27.4281 64.6126 27.5639C64.5418 27.6996 64.4345 27.8129 64.3028 27.8908C64.1711 27.9688 64.0202 28.0083 63.8671 28.005C63.7141 28.0016 63.5651 27.9555 63.4369 27.8719L61.4926 26.6035L59.3461 27.4859C59.2045 27.5441 59.0495 27.5615 58.8985 27.5362C58.7475 27.5109 58.6066 27.4438 58.4918 27.3426C58.377 27.2414 58.2927 27.11 58.2487 26.9634C58.2046 26.8168 58.2024 26.6608 58.2424 26.513L58.8469 24.2724L57.3443 22.5029C57.2452 22.3863 57.1808 22.2442 57.1582 22.0928C57.1357 21.9415 57.1559 21.7868 57.2167 21.6463C57.2774 21.5058 57.3763 21.3852 57.5021 21.2979C57.6278 21.2107 57.7755 21.1604 57.9283 21.1527L60.2467 21.0362L61.465 19.0602C61.5453 18.9299 61.6605 18.8247 61.7975 18.7564C61.9346 18.6882 62.088 18.6596 62.2404 18.674C62.3928 18.6884 62.5381 18.7452 62.66 18.8379C62.7818 18.9306 62.8753 19.0555 62.9298 19.1986L63.7571 21.3674ZM39.0663 33.3366C40.7668 32.2662 43.6281 31.1968 47.6028 32.1804H47.6025C47.7079 32.2054 47.8073 32.2511 47.895 32.3148C47.9827 32.3785 48.0569 32.459 48.1133 32.5515C48.1697 32.644 48.2072 32.7468 48.2236 32.8539C48.2401 32.961 48.2351 33.0704 48.2091 33.1755C48.183 33.2807 48.1364 33.3797 48.0719 33.4668C48.0074 33.5539 47.9263 33.6273 47.8332 33.6828C47.7402 33.7384 47.6371 33.7749 47.5298 33.7904C47.4225 33.8058 47.3133 33.7999 47.2083 33.7729C40.7482 32.1749 37.7803 36.6612 37.6573 36.8526C37.5408 37.0363 37.3561 37.1663 37.1438 37.2138C36.9314 37.2614 36.7089 37.2226 36.5252 37.1061C36.3414 36.9896 36.2115 36.8049 36.164 36.5926C36.1164 36.3803 36.1551 36.1578 36.2716 35.974C36.3095 35.9144 37.215 34.5021 39.0663 33.3366ZM38.5611 29.2933C38.5123 29.3899 38.4831 29.4952 38.4751 29.6031C38.4672 29.7111 38.4806 29.8195 38.5148 29.9222C38.5489 30.0249 38.6031 30.1198 38.674 30.2015C38.745 30.2832 38.8315 30.3501 38.9284 30.3982C39.0254 30.4463 39.1309 30.4748 39.2389 30.4819C39.3469 30.4891 39.4552 30.4748 39.5576 30.44C39.6601 30.4051 39.7546 30.3503 39.8358 30.2787C39.917 30.2071 39.9832 30.1201 40.0306 30.0229C40.9346 28.376 42.1646 26.9305 43.6454 25.7745C46.8295 23.3235 50.5261 22.9444 54.6323 24.6491C54.7318 24.6904 54.8384 24.7117 54.9462 24.7118C55.0539 24.7119 55.1606 24.6907 55.2602 24.6496C55.3597 24.6084 55.4502 24.548 55.5264 24.4719C55.6026 24.3958 55.6631 24.3054 55.7044 24.2059C55.7457 24.1064 55.767 23.9997 55.7671 23.892C55.7672 23.7843 55.746 23.6776 55.7049 23.578C55.6637 23.4785 55.6033 23.388 55.5272 23.3118C55.4511 23.2355 55.3607 23.175 55.2612 23.1337C49.4214 20.7101 45.1771 22.5251 42.6448 24.4745C40.9649 25.781 39.5744 27.4219 38.5611 29.2933ZM45.821 18.0941C46.0147 17.995 46.2398 17.9769 46.4468 18.0437C46.5059 18.0626 50.2445 19.2224 52.9682 17.6028C54.4002 16.7509 55.3297 15.2472 55.7314 13.1334C55.7515 13.0275 55.7923 12.9267 55.8514 12.8366C55.9104 12.7465 55.9867 12.669 56.0758 12.6084C56.1648 12.5478 56.2649 12.5053 56.3704 12.4834C56.4759 12.4615 56.5846 12.4605 56.6905 12.4807C56.7963 12.5008 56.8971 12.5415 56.9872 12.6006C57.0773 12.6597 57.1548 12.736 57.2155 12.825C57.2761 12.9141 57.3185 13.0142 57.3405 13.1197C57.3624 13.2252 57.3633 13.3339 57.3432 13.4397C56.8492 16.0392 55.6569 17.9162 53.7975 19.0179C52.3767 19.8599 50.7923 20.1077 49.4205 20.1077C48.2431 20.1071 47.0719 19.9378 45.9426 19.6051C45.7356 19.5382 45.5636 19.3918 45.4644 19.1982C45.3653 19.0045 45.3472 18.7793 45.4141 18.5723C45.4809 18.3653 45.6273 18.1933 45.821 18.0941ZM34.5715 39.7678C35.3875 39.7678 36.0489 39.1063 36.0489 38.2904C36.0489 37.4744 35.3875 36.813 34.5715 36.813C33.7556 36.813 33.0942 37.4744 33.0942 38.2904C33.0942 39.1063 33.7556 39.7678 34.5715 39.7678ZM47.6723 11.4932C47.6723 12.3091 47.0108 12.9706 46.1949 12.9706C45.379 12.9706 44.7175 12.3091 44.7175 11.4932C44.7175 10.6772 45.379 10.0158 46.1949 10.0158C47.0108 10.0158 47.6723 10.6772 47.6723 11.4932ZM32.4894 32.9261C33.3054 32.9261 33.9668 32.2647 33.9668 31.4487C33.9668 30.6328 33.3054 29.9714 32.4894 29.9714C31.6735 29.9714 31.012 30.6328 31.012 31.4487C31.012 32.2647 31.6735 32.9261 32.4894 32.9261ZM66.0632 33.8538C66.0632 34.6698 65.4018 35.3312 64.5859 35.3312C63.7699 35.3312 63.1085 34.6698 63.1085 33.8538C63.1085 33.0379 63.7699 32.3765 64.5859 32.3765C65.4018 32.3765 66.0632 33.0379 66.0632 33.8538Z" fill="url(#paint0_linear)"/>
<defs>
<linearGradient id="paint0_linear" x1="1.50586" y1="71.2901" x2="72.3501" y2="66.6969" gradientUnits="userSpaceOnUse">
<stop stop-color="#4481EB"/>
<stop offset="1" stop-color="#04BEFE"/>
</linearGradient>
</defs>
</svg>
