<svg width="20" height="21" viewBox="0 0 20 21" fill="none" xmlns="http://www.w3.org/2000/svg">
<path fill-rule="evenodd" clip-rule="evenodd" d="M10 19.998C14.9706 19.998 19 15.9686 19 10.998C19 6.02748 14.9706 1.99805 10 1.99805C5.02944 1.99805 1 6.02748 1 10.998C1 15.9686 5.02944 19.998 10 19.998ZM10 20.998C15.5228 20.998 20 16.5209 20 10.998C20 5.4752 15.5228 0.998047 10 0.998047C4.47715 0.998047 0 5.4752 0 10.998C0 16.5209 4.47715 20.998 10 20.998Z" fill="#336B9C"/>
<path d="M7.66699 14.0764V8.42148C7.66699 8.06287 8.03336 7.82086 8.3632 7.96158L14.4531 10.5598C14.8446 10.7268 14.8616 11.2756 14.4812 11.4665L8.39129 14.5232C8.05879 14.6901 7.66699 14.4484 7.66699 14.0764Z" fill="#336B9C"/>
</svg>
