<svg width="60" height="60" viewBox="0 0 60 60" fill="none" xmlns="http://www.w3.org/2000/svg">
<circle cx="30" cy="30" r="30" fill="url(#paint0_linear)"/>
<path d="M41.9993 35.9686V39.5816C42.0006 39.917 41.9318 40.249 41.7971 40.5563C41.6625 40.8636 41.465 41.1395 41.2174 41.3662C40.9698 41.593 40.6774 41.7656 40.359 41.873C40.0407 41.9805 39.7033 42.0204 39.3686 41.9902C35.6554 41.5875 32.0885 40.3212 28.9547 38.293C26.0391 36.4439 23.5671 33.9769 21.7144 31.067C19.675 27.9252 18.4059 24.3481 18.0098 20.6255C17.9796 20.2925 18.0193 19.9569 18.1262 19.64C18.2332 19.3231 18.4051 19.0318 18.631 18.7849C18.8569 18.5379 19.1318 18.3406 19.4383 18.2055C19.7448 18.0704 20.0761 18.0004 20.4112 18.0001H24.0313C24.6169 17.9944 25.1847 18.2013 25.6287 18.5824C26.0727 18.9636 26.3628 19.4928 26.4447 20.0716C26.5975 21.2278 26.8809 22.363 27.2894 23.4557C27.4518 23.8868 27.4869 24.3552 27.3907 24.8056C27.2944 25.256 27.0708 25.6694 26.7464 25.9968L25.2139 27.5263C26.9317 30.5414 29.4331 33.0378 32.4542 34.7522L33.9867 33.2228C34.3148 32.899 34.729 32.6758 35.1803 32.5798C35.6315 32.4837 36.1009 32.5188 36.5328 32.6808C37.6277 33.0885 38.7652 33.3713 39.9237 33.5238C40.5099 33.6064 41.0452 33.901 41.4279 34.3518C41.8106 34.8026 42.0139 35.378 41.9993 35.9686Z" stroke="white" stroke-width="2" stroke-linecap="round" stroke-linejoin="round"/>
<defs>
<linearGradient id="paint0_linear" x1="-0.331198" y1="70.5367" x2="63.5352" y2="66.9251" gradientUnits="userSpaceOnUse">
<stop stop-color="#4481EB"/>
<stop offset="1" stop-color="#04BEFE"/>
</linearGradient>
</defs>
</svg>
