<svg width="60" height="60" viewBox="0 0 60 60" fill="none" xmlns="http://www.w3.org/2000/svg">
<circle cx="30" cy="30" r="30" fill="url(#paint0_linear)"/>
<path d="M36.4141 20.6441C34.7009 19.0289 32.423 18.1392 30.0004 18.1392C27.5773 18.1392 25.2998 19.0289 23.5867 20.6441C20.4162 23.6328 20.0222 29.2562 22.7334 32.6632L30.0004 42.5578L37.2565 32.677C39.9785 29.2562 39.5845 23.6328 36.4141 20.6441ZM30.0841 29.7338C28.2588 29.7338 26.7732 28.3331 26.7732 26.6122C26.7732 24.8913 28.2588 23.4906 30.0841 23.4906C31.9093 23.4906 33.395 24.8913 33.395 26.6122C33.395 28.3331 31.9093 29.7338 30.0841 29.7338Z" stroke="white" stroke-width="2"/>
<defs>
<linearGradient id="paint0_linear" x1="-0.331198" y1="70.5367" x2="63.5352" y2="66.9251" gradientUnits="userSpaceOnUse">
<stop stop-color="#4481EB"/>
<stop offset="1" stop-color="#04BEFE"/>
</linearGradient>
</defs>
</svg>
