<svg width="70" height="70" viewBox="0 0 70 70" fill="none" xmlns="http://www.w3.org/2000/svg">
<g clip-path="url(#clip0)">
<path fill-rule="evenodd" clip-rule="evenodd" d="M58.5105 14.3907L69.4002 3.50102C70.2 2.69985 70.2 1.40103 69.4002 0.599853C68.599 -0.199951 67.3002 -0.199951 66.499 0.599853L55.6094 11.4895L58.5105 14.3907ZM45.4573 24.5425C46.2609 25.3434 47.5547 25.344 48.359 24.5425C49.1648 23.7338 49.1554 22.4369 48.359 21.6405C47.5577 20.8418 46.2588 20.8418 45.4573 21.6405C44.6587 22.4406 44.6587 23.7425 45.4573 24.5425ZM62.1693 18.6528L58.1926 14.6761L52.2154 20.652C53.292 22.9105 52.8962 25.7026 51.028 27.5707C49.8434 28.7554 48.2859 29.3484 46.7298 29.3484C45.1737 29.3484 43.6163 28.7554 42.4316 27.5707C40.0623 25.2001 40.0623 21.3436 42.4316 18.9743C44.2998 17.1062 47.0905 16.7104 49.349 17.7883L55.3262 11.8097L51.3495 7.833C49.9893 6.47275 48.0077 5.99593 46.1774 6.58892L34.4471 10.3833C33.0288 10.8412 31.7226 11.6409 30.669 12.6945L0.977273 42.3862C0.597702 42.7657 0.384277 43.2804 0.384277 43.818C0.384277 44.3556 0.597702 44.8716 0.977273 45.2512L24.7512 69.0251C25.1307 69.4046 25.6467 69.6181 26.1843 69.6181C26.722 69.6181 27.2366 69.4046 27.6162 69.0251L28.6716 67.9696C30.6192 69.2532 32.9517 70.0003 35.4584 70.0003C42.2783 70.0003 47.8084 64.4746 47.8084 57.6504C47.8084 55.1083 47.0385 52.7442 45.7214 50.7788L36.9163 59.5838L37.707 63.3329C37.7637 63.6031 37.5588 63.8603 37.2799 63.8603H33.6368C33.395 63.8603 33.2088 63.6702 33.2006 63.4407L36.9408 59.7004L36.7612 58.8485C36.6827 58.4955 36.8395 58.1295 37.1489 57.9334C37.8986 57.4627 38.4345 56.687 38.5914 55.7849C38.622 55.6106 38.6394 55.4276 38.6394 55.2402C38.6394 53.4579 37.1708 52.0154 35.3798 52.059C33.6933 52.0983 32.3206 53.471 32.277 55.1574C32.2727 55.371 32.2901 55.5801 32.3249 55.7806C32.4819 56.687 33.0179 57.4583 33.7674 57.929C34.0768 58.125 34.2293 58.4911 34.1552 58.8485L33.2209 63.2793L28.587 67.9132C25.2831 65.6966 23.1083 61.927 23.1083 57.6501C23.1083 54.299 24.4417 51.2572 26.612 49.0303C27.8322 47.7753 29.3138 46.7818 30.9698 46.1368C32.3599 45.5921 33.8764 45.2958 35.4583 45.2958C37.0401 45.2958 38.5567 45.5921 39.9468 46.1368C41.6028 46.7861 43.0844 47.7797 44.3046 49.0303C44.8511 49.5922 45.3448 50.206 45.7777 50.8635L57.3079 39.3334C58.3615 38.2798 59.1611 36.9736 59.6191 35.5552L63.4148 23.825C64.0064 21.9947 63.5282 20.0131 62.1693 18.6528ZM40.9444 44.6637C42.1601 45.1779 43.2845 45.8534 44.3042 46.677V40.855C44.3042 36.0135 40.3648 32.074 35.5233 32.074H35.3882C30.5511 32.074 26.6116 36.0135 26.6116 40.855V46.677C27.6313 45.8534 28.7556 45.1779 29.9715 44.6637C30.2983 44.5242 30.6339 44.3979 30.9694 44.2846V40.855C30.9694 38.4146 32.9522 36.4318 35.3926 36.4318H35.5277C37.968 36.4318 39.9508 38.4146 39.9508 40.855V44.2889C40.282 44.3979 40.6175 44.5242 40.9444 44.6637Z" fill="url(#paint0_linear)"/>
</g>
<defs>
<linearGradient id="paint0_linear" x1="6.99765e-07" y1="82.2932" x2="74.1044" y2="78.1257" gradientUnits="userSpaceOnUse">
<stop stop-color="#4481EB"/>
<stop offset="1" stop-color="#04BEFE"/>
</linearGradient>
<clipPath id="clip0">
<rect width="70" height="70" fill="white"/>
</clipPath>
</defs>
</svg>
