<svg display="none" xmlns="http://www.w3.org/2000/svg">
  <symbol id="inspection" viewBox="0 0 70 70">
    <g>
      <path d="M33.7172 0H0V70H11.6216V53.6851H26.7963V70H38.2204V37.6079C36.2441 37.1425 34.38 36.3863 32.6758 35.387V37.1704H28.5742V32.2104C26.9186 30.5484 25.551 28.5991 24.5528 26.4439H20.9634V20.5249H22.8545C22.7495 19.6909 22.6953 18.841 22.6953 17.9785C22.6953 17.2141 22.7378 16.4596 22.8207 15.7173H20.9634V9.79836H24.4234C26.3053 5.56296 29.6037 2.09635 33.7172 0ZM5.74219 47.897H9.84375V41.978H5.74219V47.897ZM5.74219 37.1704H9.84375V31.2514H5.74219V37.1704ZM5.74219 26.4439H9.84375V20.5249H5.74219V26.4439ZM5.74219 15.7173H9.84375V9.79836H5.74219V15.7173ZM13.353 47.897H17.4546V41.978H13.353V47.897ZM13.353 37.1704H17.4546V31.2514H13.353V37.1704ZM13.353 26.4439H17.4546V20.5249H13.353V26.4439ZM13.353 15.7173H17.4546V9.79836H13.353V15.7173ZM20.9634 47.897H25.0649V41.978H20.9634V47.897ZM20.9634 37.1704H25.0649V31.2514H20.9634V37.1704ZM28.5742 47.897H32.6758V41.978H28.5742V47.897ZM41.7751 70V38.1445C43.9551 38.1445 47.4414 37.666 49.4238 36.4355L54.3305 41.0156L58.5156 45.1172V70H41.7751ZM48.1934 65.2036H52.2949V59.2847H48.1934V65.2036ZM48.1934 54.4771H52.2949V48.5581H48.1934V54.4771ZM22.6949 57.7867H15.7233V70.0001H22.6949V57.7867ZM42.8613 32.9492C51.1294 32.9492 57.832 26.2466 57.832 17.9785C57.832 9.71042 51.1294 3.00781 42.8613 3.00781C34.5932 3.00781 27.8906 9.71042 27.8906 17.9785C27.8906 26.2466 34.5932 32.9492 42.8613 32.9492ZM42.8613 35.6836C52.6396 35.6836 60.5664 27.7568 60.5664 17.9785C60.5664 8.20027 52.6396 0.273438 42.8613 0.273438C33.0831 0.273438 25.1562 8.20027 25.1562 17.9785C25.1562 27.7568 33.0831 35.6836 42.8613 35.6836ZM55.6445 17.9785C55.6445 25.0385 49.9213 30.7617 42.8613 30.7617C35.8014 30.7617 30.0781 25.0385 30.0781 17.9785C30.0781 10.9185 35.8014 5.19531 42.8613 5.19531C49.9213 5.19531 55.6445 10.9185 55.6445 17.9785ZM42.8613 14.734C43.6281 14.734 44.2518 14.1103 44.2518 13.3435C44.2518 12.74 43.8632 12.2304 43.3248 12.0384V10.0681H42.3978V12.0384C41.8595 12.2304 41.4708 12.74 41.4708 13.3435C41.4708 14.1103 42.0946 14.734 42.8613 14.734ZM41.4399 17.9785V17.515H34.9509V17.9785C34.9509 19.278 36.3763 20.296 38.1954 20.296C40.0146 20.296 41.4399 19.278 41.4399 17.9785ZM47.5272 20.296C45.7081 20.296 44.2827 19.278 44.2827 17.9785V17.515H50.7717V17.9785C50.7717 19.278 49.3464 20.296 47.5272 20.296ZM47.0328 23.6827L42.8613 22.1183L38.6898 23.6827V24.9619H37.7628V25.8889H47.9598V24.9619H47.0328V23.6827ZM37.3969 16.588H36.3983L37.5107 13.807H34.9509V12.88H40.5598C40.5465 12.9453 40.5359 13.0117 40.5281 13.0788C40.5181 13.1657 40.5129 13.254 40.5129 13.3435C40.5129 13.5022 40.5292 13.6572 40.5598 13.807H38.8801L39.9925 16.588H38.994L38.1954 14.5917L37.3969 16.588ZM42.3978 15.6141V21.3022L42.8613 21.1284L43.3248 21.3022V15.6141C43.175 15.6447 43.02 15.661 42.8613 15.661C42.7959 15.661 42.7311 15.6582 42.667 15.6528C42.5757 15.6451 42.4858 15.6321 42.3978 15.6141ZM45.2097 13.3435C45.2097 13.1848 45.1934 13.0299 45.1628 12.88H50.7717V13.807H48.2119L49.3243 16.588H48.3258L47.5272 14.5917L46.7286 16.588H45.7301L46.8425 13.807H45.1628C45.1934 13.6572 45.2097 13.5022 45.2097 13.3435ZM60.0238 28.4708L68.5831 37.0301C69.497 37.9441 70.0004 39.1591 70.0004 40.4515C70.0004 41.744 69.497 42.9591 68.583 43.8729C67.6693 44.7868 66.4542 45.2902 65.1617 45.2902C63.8692 45.2902 62.6541 44.7869 61.7404 43.873L53.1825 35.3152C55.9743 33.6162 58.3261 31.2634 60.0238 28.4708Z" />
    </g>
  </symbol>
  <symbol id="price" viewBox="0 0 70 70">
    <g>
      <path  d="M69.4001 3.50102L58.5105 14.3906L62.5355 18.4156C63.9109 19.7924 64.3949 21.7981 63.7961 23.6506L59.9543 35.5234C59.4908 36.9589 58.6814 38.281 57.615 39.3474L27.5627 69.3997C27.1785 69.7839 26.6576 69.9999 26.1134 69.9999C25.5693 69.9999 25.047 69.7839 24.6628 69.3997L0.600199 45.3371C0.216017 44.9529 0 44.4306 0 43.8865C0 43.3423 0.216017 42.8214 0.600199 42.4373L30.6525 12.3849C31.7189 11.3185 33.041 10.5092 34.4766 10.0457L46.3493 6.20522C48.2018 5.60502 50.2075 6.08764 51.5843 7.46441L55.6093 11.4894L66.4989 0.599853C67.3001 -0.199951 68.5989 -0.199951 69.4001 0.599853C70.1999 1.40103 70.1999 2.69985 69.4001 3.50102ZM55.6093 11.4895L49.5595 17.5406C47.2735 16.4496 44.4489 16.8502 42.5581 18.741C40.16 21.1391 40.16 25.0424 42.5581 27.4419C43.7571 28.6409 45.3335 29.2411 46.9085 29.2411C48.4835 29.2411 50.0599 28.6409 51.2589 27.4419C53.1497 25.551 53.5503 22.725 52.4607 20.4391L58.5105 14.3907L55.6093 11.4895ZM48.3591 24.5426C47.5548 25.344 46.261 25.3435 45.4574 24.5426C44.6588 23.7425 44.6588 22.4407 45.4574 21.6406C46.2589 20.8419 47.5578 20.8419 48.3591 21.6406C49.1555 22.437 49.1649 23.7339 48.3591 24.5426ZM16.9531 50.039V38.0077C16.9531 37.7176 17.0683 37.4394 17.2734 37.2343C17.4785 37.0292 17.7567 36.9139 18.0469 36.9139H24.1562L24.9546 36.1154C25.5405 35.5328 26.005 34.8398 26.3213 34.0764C26.6375 33.3131 26.7991 32.4947 26.7969 31.6684V29.2577C26.7969 28.9676 26.9121 28.6894 27.1172 28.4843C27.3223 28.2792 27.6005 28.1639 27.8906 28.1639H30.0781C30.948 28.1649 31.782 28.511 32.3971 29.1261C33.0122 29.7413 33.3583 30.5753 33.3594 31.4452V34.7264C33.3596 35.0164 33.475 35.2944 33.6801 35.4995C33.885 35.7045 34.1631 35.8199 34.4531 35.8202H40.4688C41.0609 35.8203 41.6371 36.0127 42.1106 36.3685C42.584 36.7243 42.9293 37.2242 43.0942 37.7929C43.2592 38.3617 43.235 38.9687 43.0253 39.5226C42.8157 40.0765 42.4318 40.5473 41.9315 40.8643C42.1556 41.4535 42.1691 42.102 41.9697 42.6999C41.7704 43.2979 41.3705 43.8086 40.8378 44.1456C41.0618 44.7348 41.0753 45.3832 40.876 45.9812C40.6766 46.5792 40.2768 47.0899 39.744 47.4268C39.9015 47.8408 39.9559 48.2868 39.9028 48.7266C39.8495 49.1663 39.6904 49.5865 39.4388 49.9511C39.1873 50.3157 38.8511 50.6137 38.4588 50.8195C38.0667 51.0254 37.6304 51.1328 37.1875 51.1327H18.0469C17.7567 51.1327 17.4785 51.0175 17.2734 50.8123C17.0683 50.6073 16.9531 50.329 16.9531 50.039ZM37.574 48.0116C37.6766 48.1142 37.7342 48.2533 37.7342 48.3983C37.7342 48.5434 37.6766 48.6824 37.574 48.7851C37.4715 48.8876 37.3324 48.9452 37.1874 48.9452H25.703V38.4606L26.5015 37.6624C27.2911 36.877 27.9171 35.9429 28.3432 34.914C28.7694 33.8852 28.9873 32.7821 28.9842 31.6684V30.3514H30.078C30.368 30.3518 30.646 30.4671 30.851 30.6721C31.0561 30.8772 31.1715 31.1552 31.1717 31.4452V34.7264C31.1728 35.5964 31.5187 36.4304 32.134 37.0455C32.7491 37.6606 33.583 38.0067 34.453 38.0077H40.4686C40.6136 38.0077 40.7527 38.0653 40.8553 38.1679C40.9578 38.2705 41.0155 38.4095 41.0155 38.5546C41.0155 38.6996 40.9578 38.8387 40.8553 38.9413C40.7527 39.0438 40.6136 39.1015 40.4686 39.1015H39.3749C39.0847 39.1015 38.8066 39.2167 38.6014 39.4218C38.3963 39.6269 38.2811 39.9051 38.2811 40.1952C38.2811 40.4853 38.3963 40.7635 38.6014 40.9686C38.8066 41.1737 39.0847 41.289 39.3749 41.289C39.4257 41.289 39.4758 41.296 39.5239 41.3096C39.6129 41.3349 39.6949 41.3825 39.7615 41.4491C39.8288 41.5165 39.8769 41.5995 39.9019 41.6896C39.9095 41.7171 39.9149 41.7452 39.9181 41.7737C39.9205 41.7942 39.9217 41.8149 39.9217 41.8358C39.9217 41.9809 39.8641 42.1199 39.7615 42.2225C39.659 42.3251 39.5199 42.3827 39.3749 42.3827H38.2811C37.991 42.3827 37.7129 42.4979 37.5077 42.7031C37.3026 42.9081 37.1874 43.1864 37.1874 43.4765C37.1874 43.7665 37.3026 44.0448 37.5077 44.2498C37.7129 44.455 37.991 44.5702 38.2811 44.5702C38.4261 44.5702 38.5652 44.6278 38.6678 44.7304C38.7033 44.7659 38.7335 44.8059 38.7578 44.849C38.8034 44.9302 38.828 45.0223 38.828 45.1171C38.828 45.2621 38.7703 45.4012 38.6678 45.5038C38.5652 45.6063 38.4261 45.664 38.2811 45.664H37.1874C36.8972 45.664 36.6191 45.7792 36.4139 45.9843C36.2088 46.1894 36.0936 46.4676 36.0936 46.7577C36.0936 47.0478 36.2088 47.326 36.4139 47.5311C36.6191 47.7362 36.8972 47.8515 37.1874 47.8515C37.3324 47.8515 37.4715 47.9091 37.574 48.0116ZM19.1405 39.1015H23.5155V48.9452H19.1405V39.1015Z"/>
    </g>
  </symbol>
  <symbol id="quality" viewBox="0 0 52 70">
    <g>
      <path  d="M40.399 43.8635L37.198 49.0577L31.1435 48.3269L26.0003 51.6094L20.8571 48.3269L14.8025 49.0578L11.6015 43.8636L5.82486 41.8935L5.18488 35.8263L0.838867 31.5479L2.90523 25.8047L0.838867 20.0616L5.18502 15.7829L5.825 9.71592L11.6016 7.7458L14.8026 2.55158L20.8571 3.28262L26.0003 0L31.1435 3.28234L37.1981 2.55131L40.3991 7.74566L46.1758 9.71578L46.8157 15.7828L51.1618 20.0614L49.0954 25.8046L51.1618 31.5476L46.8156 35.8262L46.1756 41.8934L40.399 43.8635ZM26.0003 8.10934C16.2431 8.10934 8.30494 16.0475 8.30494 25.8047C8.30494 35.5619 16.2431 43.5001 26.0003 43.5001C35.7575 43.5001 43.6957 35.5619 43.6957 25.8047C43.6957 16.0475 35.7575 8.10934 26.0003 8.10934ZM12.6866 53.4472L19.889 52.5777L24.5374 55.5445L19.9125 70L12.0532 63.7192L2.00781 64.2716L7.58771 46.831L8.88135 47.272L12.6866 53.4472ZM43.1192 47.2722L39.3138 53.4472L32.1116 52.5777L27.4631 55.5445L32.0881 70L39.9473 63.7192L49.9927 64.2716L44.4128 46.831L43.1192 47.2722ZM26.0006 12.2136C18.5063 12.2136 12.4093 18.3106 12.4093 25.8048C12.4093 33.299 18.5063 39.396 26.0006 39.396C33.4948 39.396 39.5918 33.299 39.5918 25.8048C39.5918 18.3106 33.4948 12.2136 26.0006 12.2136ZM30.0299 27.2389L33.2307 24.9142C33.4523 24.7532 33.6173 24.5262 33.702 24.2657C33.7868 24.0052 33.7868 23.7246 33.7021 23.4641C33.6175 23.2036 33.4524 22.9767 33.2308 22.8156C33.009 22.6546 32.7421 22.5679 32.4682 22.5678H28.5117L27.289 18.8064C27.2042 18.546 27.0392 18.319 26.8176 18.1581C26.5959 17.9971 26.3289 17.9104 26.0549 17.9104C25.781 17.9104 25.5141 17.9971 25.2923 18.1581C25.0707 18.319 24.9057 18.546 24.821 18.8064L23.5981 22.5678H19.6418C19.3679 22.5679 19.1008 22.6546 18.8792 22.8156C18.6576 22.9767 18.4926 23.2036 18.4079 23.4641C18.3233 23.7246 18.3233 24.0052 18.4079 24.2657C18.4926 24.5262 18.6576 24.7532 18.8792 24.9142L22.08 27.2389L20.8572 31.0003C20.7723 31.2609 20.7722 31.5416 20.8568 31.8022C20.9415 32.0629 21.1065 32.29 21.3283 32.4511C21.55 32.6122 21.8172 32.6989 22.0913 32.6989C22.3654 32.6989 22.6326 32.612 22.8542 32.4508L26.0549 30.1262L29.2557 32.4508C29.4775 32.612 29.7445 32.6989 30.0186 32.6989C30.2928 32.6989 30.5599 32.6122 30.7816 32.4511C31.0034 32.29 31.1684 32.0629 31.2531 31.8022C31.3377 31.5416 31.3376 31.2609 31.2527 31.0003L30.0299 27.2389Z"/>
    </g>
  </symbol>
</svg>