<svg width="144" height="561" viewBox="0 0 144 561" fill="none" xmlns="http://www.w3.org/2000/svg">
<path d="M1.27114 0.0374596C0.739542 -0.112286 0.187205 0.197265 0.0374596 0.728862C-0.112286 1.26046 0.197265 1.81279 0.728862 1.96254L1.27114 0.0374596ZM143 41L134.94 32.7314L131.809 43.8458L143 41ZM143.486 82.3739C143.969 82.1054 144.142 81.4965 143.874 81.0138C143.605 80.5312 142.996 80.3576 142.514 80.6261L143.486 82.3739ZM1 160.5L12.5455 160.684L6.93179 150.593L1 160.5ZM1.27114 200.037C0.739542 199.888 0.187205 200.197 0.0374596 200.729C-0.112286 201.26 0.197265 201.813 0.728862 201.963L1.27114 200.037ZM143 241L134.94 232.731L131.809 243.846L143 241ZM143.486 282.374C143.969 282.105 144.142 281.496 143.874 281.014C143.605 280.531 142.996 280.358 142.514 280.626L143.486 282.374ZM1 360.5L12.5455 360.684L6.93179 350.593L1 360.5ZM1.27114 400.037C0.739542 399.888 0.187205 400.197 0.0374596 400.729C-0.112286 401.26 0.197265 401.813 0.728862 401.963L1.27114 400.037ZM143 441L134.94 432.731L131.809 443.846L143 441ZM143.486 482.374C143.969 482.105 144.142 481.496 143.874 481.014C143.605 480.531 142.996 480.358 142.514 480.626L143.486 482.374ZM1 560.5L12.5455 560.684L6.93179 550.593L1 560.5ZM0.728862 1.96254L134.066 39.5223L134.608 37.5972L1.27114 0.0374596L0.728862 1.96254ZM142.514 80.6261L8.37864 155.251L9.35097 156.998L143.486 82.3739L142.514 80.6261ZM0.728862 201.963L134.066 239.522L134.608 237.597L1.27114 200.037L0.728862 201.963ZM142.514 280.626L8.37864 355.251L9.35097 356.998L143.486 282.374L142.514 280.626ZM0.728862 401.963L134.066 439.522L134.608 437.597L1.27114 400.037L0.728862 401.963ZM142.514 480.626L8.37864 555.251L9.35097 556.998L143.486 482.374L142.514 480.626Z" fill="#43C8FF"/>
</svg>
