<svg width="165" height="165" viewBox="0 0 165 165" fill="none" xmlns="http://www.w3.org/2000/svg">
<rect x="-1" y="1" width="148" height="148" transform="matrix(-1 0 0 1 148 15)" stroke="#43C8FF" stroke-width="2"/>
<rect width="150" height="150" transform="matrix(1 0 0 -1 15 150)" fill="url(#paint0_linear)"/>
<path fill-rule="evenodd" clip-rule="evenodd" d="M65 50.8889C65 50.398 65.398 50 65.8889 50H144.111C144.602 50 145 50.398 145 50.8889V129.111C145 129.602 144.602 130 144.111 130H129C128.509 130 128.111 129.602 128.111 129.111V122.889C128.111 122.398 128.509 122 129 122H137V97.1111H129.889C129.398 97.1111 129 96.7131 129 96.2222V90C129 89.5091 129.398 89.1111 129.889 89.1111H137V84.6667H133.444C132.954 84.6667 132.556 84.2687 132.556 83.7778V64.2222C132.556 63.7313 132.954 63.3333 133.444 63.3333H137V58H108.556V80.2222C108.556 80.7131 108.158 81.1111 107.667 81.1111H101.444C100.954 81.1111 100.556 80.7131 100.556 80.2222V58H89V77.5556C89 81.9738 85.4183 85.5556 81 85.5556H73V89.1111H113.889C114.38 89.1111 114.778 89.5091 114.778 90V96.2222C114.778 96.7131 114.38 97.1111 113.889 97.1111H73V102.444H77.4444C77.9354 102.444 78.3333 102.842 78.3333 103.333V115.778C78.3333 116.269 77.9354 116.667 77.4444 116.667H73V122H100.556V106.889C100.556 106.398 100.954 106 101.444 106H107.667C108.158 106 108.556 106.398 108.556 106.889V122H117.444C117.935 122 118.333 122.398 118.333 122.889V129.111C118.333 129.602 117.935 130 117.444 130H65.8889C65.398 130 65 129.602 65 129.111V50.8889ZM73 114.889H76.5556V104.222H73V114.889ZM73 83.7778H81C84.4364 83.7778 87.2222 80.992 87.2222 77.5556V58H84.5556V59.7778C84.5556 60.2687 84.1576 60.6667 83.6667 60.6667C83.1757 60.6667 82.7778 60.2687 82.7778 59.7778V58H81V62.4444C81 62.9354 80.602 63.3333 80.1111 63.3333C79.6202 63.3333 79.2222 62.9354 79.2222 62.4444V58H77.4444V59.7778C77.4444 60.2687 77.0465 60.6667 76.5556 60.6667C76.0646 60.6667 75.6667 60.2687 75.6667 59.7778V58H73V83.7778ZM137 65.1111H134.333V82.8889H137V65.1111ZM66.7778 51.7778V128.222H116.556V123.778H107.667C107.176 123.778 106.778 123.38 106.778 122.889V107.778H102.333V122.889C102.333 123.38 101.935 123.778 101.444 123.778H72.1111C71.6202 123.778 71.2222 123.38 71.2222 122.889V96.2222C71.2222 95.7313 71.6202 95.3333 72.1111 95.3333H113V90.8889H72.1111C71.6202 90.8889 71.2222 90.4909 71.2222 90V57.1111C71.2222 56.6202 71.6202 56.2222 72.1111 56.2222H101.444C101.935 56.2222 102.333 56.6202 102.333 57.1111V79.3333H106.778V57.1111C106.778 56.6202 107.176 56.2222 107.667 56.2222H137.889C138.38 56.2222 138.778 56.6202 138.778 57.1111V90C138.778 90.4909 138.38 90.8889 137.889 90.8889H130.778V95.3333H137.889C138.38 95.3333 138.778 95.7313 138.778 96.2222V122.889C138.778 123.38 138.38 123.778 137.889 123.778H129.889V128.222H143.222V51.7778H66.7778ZM113.889 64.2222C113.889 63.7313 114.287 63.3333 114.778 63.3333H125.444C125.935 63.3333 126.333 63.7313 126.333 64.2222V83.7778C126.333 84.2687 125.935 84.6667 125.444 84.6667H114.778C114.287 84.6667 113.889 84.2687 113.889 83.7778V64.2222ZM115.667 65.1111V82.8889H124.556V80.2222H119.222C118.731 80.2222 118.333 79.8243 118.333 79.3333V68.6667C118.333 68.1757 118.731 67.7778 119.222 67.7778H124.556V65.1111H115.667ZM124.556 69.5556H120.111V78.4444H124.556V69.5556ZM80.1111 76.6667C80.602 76.6667 81 77.0646 81 77.5556V78C81 78.4909 80.602 78.8889 80.1111 78.8889C79.6202 78.8889 79.2222 78.4909 79.2222 78V77.5556C79.2222 77.0646 79.6202 76.6667 80.1111 76.6667Z" fill="#F5FDFF"/>
<path fill-rule="evenodd" clip-rule="evenodd" d="M78.3334 107.28V111.831C79.3952 113.088 81.3452 114 83.6668 114C85.4567 114 87.043 113.455 88.1618 112.616C89.2802 111.777 89.889 110.686 89.889 109.556C89.889 108.425 89.2802 107.334 88.1618 106.496C87.043 105.657 85.4567 105.111 83.6668 105.111C81.3452 105.111 79.3952 106.023 78.3334 107.28ZM76.73 106.443C78.1433 104.533 80.7672 103.333 83.6668 103.333C85.8042 103.333 87.7735 103.982 89.2284 105.073C90.6837 106.165 91.6668 107.74 91.6668 109.556C91.6668 111.371 90.6837 112.947 89.2284 114.038C87.7735 115.129 85.8042 115.778 83.6668 115.778C80.7672 115.778 78.1433 114.579 76.73 112.668C76.6168 112.515 76.5557 112.33 76.5557 112.14V106.972C76.5557 106.781 76.6168 106.596 76.73 106.443ZM80.5557 109.556C80.5557 109.065 80.9536 108.667 81.4446 108.667H81.889C82.3799 108.667 82.7779 109.065 82.7779 109.556C82.7779 110.047 82.3799 110.445 81.889 110.445H81.4446C80.9536 110.445 80.5557 110.047 80.5557 109.556Z" fill="#F5FDFF"/>
<path d="M35.17 33.36C33.43 33.36 31.88 32.93 30.52 32.07C29.16 31.21 28.09 29.97 27.31 28.35C26.55 26.71 26.17 24.76 26.17 22.5C26.17 20.24 26.55 18.3 27.31 16.68C28.09 15.04 29.16 13.79 30.52 12.93C31.88 12.07 33.43 11.64 35.17 11.64C36.91 11.64 38.46 12.07 39.82 12.93C41.18 13.79 42.24 15.04 43 16.68C43.78 18.3 44.17 20.24 44.17 22.5C44.17 24.76 43.78 26.71 43 28.35C42.24 29.97 41.18 31.21 39.82 32.07C38.46 32.93 36.91 33.36 35.17 33.36ZM35.17 29.25C36.45 29.25 37.45 28.7 38.17 27.6C38.91 26.5 39.28 24.8 39.28 22.5C39.28 20.2 38.91 18.5 38.17 17.4C37.45 16.3 36.45 15.75 35.17 15.75C33.91 15.75 32.91 16.3 32.17 17.4C31.45 18.5 31.09 20.2 31.09 22.5C31.09 24.8 31.45 26.5 32.17 27.6C32.91 28.7 33.91 29.25 35.17 29.25ZM56.6413 19.83C57.9813 19.83 59.2013 20.1 60.3013 20.64C61.4013 21.18 62.2713 21.95 62.9113 22.95C63.5513 23.93 63.8713 25.07 63.8713 26.37C63.8713 27.77 63.5213 29 62.8213 30.06C62.1213 31.12 61.1613 31.94 59.9413 32.52C58.7413 33.08 57.4013 33.36 55.9213 33.36C52.9813 33.36 50.6813 32.46 49.0213 30.66C47.3613 28.86 46.5313 26.29 46.5313 22.95C46.5313 20.57 46.9813 18.53 47.8813 16.83C48.7813 15.13 50.0313 13.84 51.6313 12.96C53.2513 12.08 55.1213 11.64 57.2413 11.64C58.3613 11.64 59.4313 11.77 60.4513 12.03C61.4913 12.27 62.3713 12.62 63.0913 13.08L61.2913 16.65C60.2513 15.95 58.9413 15.6 57.3613 15.6C55.5813 15.6 54.1713 16.12 53.1313 17.16C52.0913 18.2 51.5313 19.71 51.4513 21.69C52.6913 20.45 54.4213 19.83 56.6413 19.83ZM55.6513 29.73C56.6913 29.73 57.5313 29.45 58.1713 28.89C58.8313 28.33 59.1613 27.57 59.1613 26.61C59.1613 25.65 58.8313 24.89 58.1713 24.33C57.5313 23.75 56.6713 23.46 55.5913 23.46C54.5313 23.46 53.6613 23.76 52.9813 24.36C52.3013 24.94 51.9613 25.69 51.9613 26.61C51.9613 27.53 52.2913 28.28 52.9513 28.86C53.6113 29.44 54.5113 29.73 55.6513 29.73Z" fill="#F5FDFF"/>
<defs>
<linearGradient id="paint0_linear" x1="5.1753e-07" y1="160" x2="158.688" y2="150.164" gradientUnits="userSpaceOnUse">
<stop stop-color="#4481EB"/>
<stop offset="1" stop-color="#04BEFE"/>
</linearGradient>
</defs>
</svg>
