<svg width="165" height="165" viewBox="0 0 165 165" fill="none" xmlns="http://www.w3.org/2000/svg">
<rect x="-1" y="1" width="148" height="148" transform="matrix(-1 0 0 1 163 15)" stroke="#43C8FF" stroke-width="2"/>
<rect width="150" height="150" transform="matrix(-1 0 0 1 150 0)" fill="url(#paint0_linear)"/>
<g clip-path="url(#clip0)">
<path fill-rule="evenodd" clip-rule="evenodd" d="M79.8172 89.3702C80.164 89.025 80.7245 89.025 81.0713 89.3702L99.7379 107.948C100.086 108.294 100.087 108.857 99.7409 109.205C99.3946 109.553 98.8318 109.554 98.4839 109.208L97.1715 107.902V123.778C97.1715 124.269 96.7735 124.667 96.2826 124.667H64.6058C64.1149 124.667 63.717 124.269 63.717 123.778V107.902L62.4046 109.208C62.0566 109.554 61.4938 109.553 61.1475 109.205C60.8012 108.857 60.8026 108.294 61.1505 107.948L79.8172 89.3702ZM65.4947 106.133V122.889H76.1614V112.519C76.1614 112.028 76.5594 111.63 77.0503 111.63H84.9695C85.4604 111.63 85.8584 112.028 85.8584 112.519V122.889H95.3937V106.133L80.4442 91.2543L65.4947 106.133ZM84.0806 122.889V113.408H77.9392V122.889H84.0806Z" fill="#F5FDFF"/>
<path fill-rule="evenodd" clip-rule="evenodd" d="M80.4442 97.1113C79.4624 97.1113 78.6664 97.9072 78.6664 98.8891C78.6664 99.8709 79.4624 100.667 80.4442 100.667C81.4261 100.667 82.222 99.8709 82.222 98.8891C82.222 97.9072 81.4261 97.1113 80.4442 97.1113ZM76.8887 98.8891C76.8887 96.9254 78.4805 95.3335 80.4442 95.3335C82.4079 95.3335 83.9998 96.9254 83.9998 98.8891C83.9998 100.853 82.4079 102.445 80.4442 102.445C78.4805 102.445 76.8887 100.853 76.8887 98.8891Z" fill="#F5FDFF"/>
<path fill-rule="evenodd" clip-rule="evenodd" d="M69.7779 63.3334C67.3233 63.3334 65.3334 65.3233 65.3334 67.7779C65.3334 70.2325 67.3233 72.2223 69.7779 72.2223C72.2325 72.2223 74.2223 70.2325 74.2223 67.7779C74.2223 65.3233 72.2325 63.3334 69.7779 63.3334ZM63.5557 67.7779C63.5557 64.3414 66.3414 61.5557 69.7779 61.5557C73.2143 61.5557 76.0001 64.3414 76.0001 67.7779C76.0001 71.2143 73.2143 74.0001 69.7779 74.0001C66.3414 74.0001 63.5557 71.2143 63.5557 67.7779Z" fill="#F5FDFF"/>
<path fill-rule="evenodd" clip-rule="evenodd" d="M63.9999 57.1113C54.9179 57.1113 47.5554 64.4737 47.5554 73.5557C47.5554 76.3899 48.2717 79.0542 49.5324 81.38C51.0961 84.265 53.498 86.6302 56.4107 88.1482C58.6802 89.3311 61.2606 90.0002 63.9999 90.0002C73.0819 90.0002 80.4443 82.6377 80.4443 73.5557C80.4443 64.4737 73.0819 57.1113 63.9999 57.1113ZM45.7777 73.5557C45.7777 63.4919 53.936 55.3335 63.9999 55.3335C74.0637 55.3335 82.2221 63.4919 82.2221 73.5557C82.2221 83.6196 74.0637 91.7779 63.9999 91.7779C61.2019 91.7779 58.549 91.1467 56.178 90.0183L43.121 103.158C42.9874 103.293 42.8143 103.381 42.627 103.41L38.0983 104.114L37.2693 108.821C37.2049 109.187 36.9198 109.474 36.5545 109.541L32.2938 110.324L31.2652 114.896C31.2285 115.059 31.1465 115.209 31.0286 115.327L29.0749 117.293C28.908 117.461 28.6811 117.556 28.4443 117.556H21.3332C20.8423 117.556 20.4443 117.158 20.4443 116.667V109.111C20.4443 108.875 20.5385 108.648 20.7059 108.481L47.6618 81.6338C46.4554 79.1984 45.7777 76.4551 45.7777 73.5557ZM48.5641 83.2442L22.2221 109.481V115.778H28.0745L29.587 114.256L30.6882 109.361C30.7664 109.013 31.0445 108.746 31.3948 108.681L35.6257 107.904L36.4578 103.179C36.5238 102.805 36.8208 102.514 37.1967 102.455L42.0656 101.698L54.5472 89.1374C52.1243 87.6645 50.0725 85.6427 48.5641 83.2442Z" fill="#F5FDFF"/>
<path fill-rule="evenodd" clip-rule="evenodd" d="M69.52 76.685C69.3848 79.3393 69.9599 82.7843 71.3159 86.367C72.672 89.9496 74.5221 92.912 76.381 94.8115C77.3115 95.7623 78.2137 96.4156 79.0247 96.7645C79.8302 97.1109 80.4905 97.1367 81.0192 96.9366C81.4783 96.7628 81.9914 96.9942 82.1652 97.4533C82.339 97.9124 82.1077 98.4255 81.6485 98.5993C80.5703 99.0074 79.4182 98.869 78.3222 98.3976C77.2318 97.9285 76.1433 97.1104 75.1105 96.0549C73.0427 93.942 71.0752 90.753 69.6532 86.9963C68.2313 83.2396 67.5941 79.5471 67.7445 76.5945C67.8197 75.1197 68.0936 73.7859 68.6002 72.7123C69.1093 71.6334 69.881 70.7668 70.9592 70.3587C71.9772 69.9733 73.0629 70.0752 74.1035 70.4853C74.5602 70.6653 74.7845 71.1815 74.6045 71.6382C74.4245 72.095 73.9083 72.3193 73.4516 72.1393C72.705 71.845 72.0889 71.8319 71.5886 72.0213C71.0599 72.2214 70.5821 72.678 70.2079 73.471C69.8312 74.2694 69.5877 75.3564 69.52 76.685ZM80.2032 78.1004C80.6388 77.8741 81.1755 78.0437 81.4018 78.4794C81.9661 79.5655 82.4891 80.7319 82.9545 81.9616C84.5562 86.1931 85.1662 90.355 84.7655 93.4695C84.7028 93.9564 84.2573 94.3004 83.7704 94.2377C83.2835 94.1751 82.9396 93.7295 83.0022 93.2426C83.3552 90.4991 82.8239 86.6386 81.2919 82.591C80.8505 81.425 80.3559 80.3223 79.8242 79.299C79.5979 78.8633 79.7676 78.3267 80.2032 78.1004Z" fill="#F5FDFF"/>
</g>
<path d="M111.17 33.36C109.43 33.36 107.88 32.93 106.52 32.07C105.16 31.21 104.09 29.97 103.31 28.35C102.55 26.71 102.17 24.76 102.17 22.5C102.17 20.24 102.55 18.3 103.31 16.68C104.09 15.04 105.16 13.79 106.52 12.93C107.88 12.07 109.43 11.64 111.17 11.64C112.91 11.64 114.46 12.07 115.82 12.93C117.18 13.79 118.24 15.04 119 16.68C119.78 18.3 120.17 20.24 120.17 22.5C120.17 24.76 119.78 26.71 119 28.35C118.24 29.97 117.18 31.21 115.82 32.07C114.46 32.93 112.91 33.36 111.17 33.36ZM111.17 29.25C112.45 29.25 113.45 28.7 114.17 27.6C114.91 26.5 115.28 24.8 115.28 22.5C115.28 20.2 114.91 18.5 114.17 17.4C113.45 16.3 112.45 15.75 111.17 15.75C109.91 15.75 108.91 16.3 108.17 17.4C107.45 18.5 107.09 20.2 107.09 22.5C107.09 24.8 107.45 26.5 108.17 27.6C108.91 28.7 109.91 29.25 111.17 29.25ZM129.731 19.89C132.691 19.89 134.871 20.48 136.271 21.66C137.691 22.84 138.401 24.42 138.401 26.4C138.401 27.68 138.081 28.85 137.441 29.91C136.801 30.95 135.821 31.79 134.501 32.43C133.201 33.05 131.591 33.36 129.671 33.36C128.191 33.36 126.731 33.17 125.291 32.79C123.871 32.39 122.661 31.83 121.661 31.11L123.581 27.39C124.381 27.99 125.301 28.46 126.341 28.8C127.381 29.12 128.451 29.28 129.551 29.28C130.771 29.28 131.731 29.04 132.431 28.56C133.131 28.08 133.481 27.41 133.481 26.55C133.481 25.65 133.111 24.97 132.371 24.51C131.651 24.05 130.391 23.82 128.591 23.82H123.221L124.301 12L137.111 12V15.9L128.351 15.9L128.021 19.89H129.731Z" fill="#F5FDFF"/>
<defs>
<linearGradient id="paint0_linear" x1="5.1753e-07" y1="160" x2="158.688" y2="150.164" gradientUnits="userSpaceOnUse">
<stop stop-color="#4481EB"/>
<stop offset="1" stop-color="#04BEFE"/>
</linearGradient>
<clipPath id="clip0">
<rect width="80" height="80" fill="white" transform="translate(20 50)"/>
</clipPath>
</defs>
</svg>
