<svg width="165" height="165" viewBox="0 0 165 165" fill="none" xmlns="http://www.w3.org/2000/svg">
<rect x="-1" y="1" width="148" height="148" transform="matrix(-1 0 0 1 148 15)" stroke="#43C8FF" stroke-width="2"/>
<rect x="15" width="150" height="150" fill="url(#paint0_linear)"/>
<path fill-rule="evenodd" clip-rule="evenodd" d="M129.444 58C129.682 58 129.91 58.0951 130.077 58.2641L141.188 69.5086C141.533 69.8578 141.529 70.4206 141.18 70.7656C140.831 71.1107 140.268 71.1073 139.923 70.7581L139.761 70.5938V79.3333C139.761 79.8243 139.363 80.2222 138.872 80.2222H132.138C131.647 80.2222 131.249 79.8243 131.249 79.3333V73.4074H128.313V79.3333C128.313 79.8243 127.915 80.2222 127.424 80.2222H120.017C119.526 80.2222 119.128 79.8243 119.128 79.3333V70.5938L118.966 70.7581C118.62 71.1073 118.058 71.1107 117.708 70.7656C117.359 70.4206 117.356 69.8578 117.701 69.5086L128.812 58.2641C128.979 58.0951 129.207 58 129.444 58ZM120.906 68.7947V78.4444H126.535V72.5185C126.535 72.0276 126.933 71.6296 127.424 71.6296H132.138C132.629 71.6296 133.027 72.0276 133.027 72.5185V78.4444H137.983V68.7947L129.444 60.1535L120.906 68.7947Z" fill="#F5FDFF"/>
<path fill-rule="evenodd" clip-rule="evenodd" d="M84.5557 58.0001C84.5557 54.5636 87.3414 51.7778 90.7779 51.7778H138.778C142.214 51.7778 145 54.5636 145 58.0001V89.1112C145 92.5476 142.214 95.3334 138.778 95.3334H123.222V105.111H128.111C128.602 105.111 129 105.509 129 106C129 106.491 128.602 106.889 128.111 106.889H101.445C100.954 106.889 100.556 106.491 100.556 106C100.556 105.509 100.954 105.111 101.445 105.111H106.333V95.3334H102.333C101.843 95.3334 101.445 94.9354 101.445 94.4445C101.445 93.9536 101.843 93.5556 102.333 93.5556H138.778C141.232 93.5556 143.222 91.5658 143.222 89.1112V87.3334H102.333C101.843 87.3334 101.445 86.9354 101.445 86.4445C101.445 85.9536 101.843 85.5556 102.333 85.5556H143.222V58.0001C143.222 55.5455 141.232 53.5556 138.778 53.5556H90.7779C88.3233 53.5556 86.3334 55.5455 86.3334 58.0001V73.1112C86.3334 73.6021 85.9355 74.0001 85.4446 74.0001C84.9536 74.0001 84.5557 73.6021 84.5557 73.1112V58.0001ZM108.111 95.3334V105.111H121.445V95.3334H108.111ZM101 65.1112C101 64.6202 101.398 64.2223 101.889 64.2223H109C109.491 64.2223 109.889 64.6202 109.889 65.1112C109.889 65.6021 109.491 66.0001 109 66.0001H101.889C101.398 66.0001 101 65.6021 101 65.1112ZM101 69.5556C101 69.0647 101.398 68.6667 101.889 68.6667H103.222C103.713 68.6667 104.111 69.0647 104.111 69.5556C104.111 70.0465 103.713 70.4445 103.222 70.4445H101.889C101.398 70.4445 101 70.0465 101 69.5556ZM105 69.5556C105 69.0647 105.398 68.6667 105.889 68.6667H109C109.491 68.6667 109.889 69.0647 109.889 69.5556C109.889 70.0465 109.491 70.4445 109 70.4445H105.889C105.398 70.4445 105 70.0465 105 69.5556ZM101 74.0001C101 73.5091 101.398 73.1112 101.889 73.1112H111.667C112.158 73.1112 112.556 73.5091 112.556 74.0001C112.556 74.491 112.158 74.8889 111.667 74.8889H101.889C101.398 74.8889 101 74.491 101 74.0001ZM113.889 74.0001C113.889 73.5091 114.287 73.1112 114.778 73.1112H116.111C116.602 73.1112 117 73.5091 117 74.0001C117 74.491 116.602 74.8889 116.111 74.8889H114.778C114.287 74.8889 113.889 74.491 113.889 74.0001ZM101 78.4445C101 77.9536 101.398 77.5556 101.889 77.5556H109.445C109.935 77.5556 110.333 77.9536 110.333 78.4445C110.333 78.9354 109.935 79.3334 109.445 79.3334H101.889C101.398 79.3334 101 78.9354 101 78.4445ZM111.667 78.4445C111.667 77.9536 112.065 77.5556 112.556 77.5556H116.111C116.602 77.5556 117 77.9536 117 78.4445C117 78.9354 116.602 79.3334 116.111 79.3334H112.556C112.065 79.3334 111.667 78.9354 111.667 78.4445Z" fill="#F5FDFF"/>
<path fill-rule="evenodd" clip-rule="evenodd" d="M69.4393 89.1111C69.4393 79.7836 77.0007 72.2222 86.3282 72.2222C95.6557 72.2222 103.217 79.7836 103.217 89.1111V97.537C103.217 97.5432 103.217 97.5493 103.217 97.5555C103.217 97.5617 103.217 97.5678 103.217 97.574V97.9999C103.217 98.1313 103.189 98.256 103.137 98.3682C102.925 99.441 102.308 100.37 101.517 101.056C100.722 101.745 99.71 102.228 98.6455 102.387C98.0903 106.106 95.7631 109.246 92.5505 110.92V112.784C93.0324 112.852 93.5076 112.918 93.9748 112.984C96.2197 113.298 98.2794 113.586 100 113.896C101.136 114.101 102.151 114.32 102.993 114.571C103.818 114.816 104.558 115.114 105.086 115.513C105.698 115.975 106.136 116.658 106.461 117.424C106.788 118.197 107.025 119.116 107.199 120.127C107.547 122.147 107.662 124.652 107.662 127.333C107.662 127.569 107.568 127.795 107.401 127.962C107.235 128.129 107.008 128.222 106.773 128.222H65.8889C65.6531 128.222 65.427 128.129 65.2603 127.962C65.0937 127.795 65 127.569 65 127.333C65 124.652 65.1143 122.147 65.4624 120.127C65.6365 119.116 65.874 118.197 66.201 117.424C66.5254 116.658 66.9637 115.975 67.5752 115.513C68.0582 115.148 68.7145 114.87 69.4408 114.641C70.1814 114.406 71.0655 114.201 72.0529 114.01C73.8914 113.654 76.1646 113.336 78.6632 112.987C78.8445 112.962 79.027 112.936 79.2107 112.91C79.5606 112.861 79.8611 112.819 80.1063 112.784V110.921C76.8935 109.246 74.5662 106.106 74.011 102.387C72.9465 102.228 71.9349 101.745 71.1398 101.056C70.3486 100.37 69.7314 99.4412 69.5191 98.3685C69.4679 98.2562 69.4393 98.1314 69.4393 97.9999V89.1111ZM71.2171 93.9896C72.0213 93.3176 73.0344 92.8534 74.0955 92.712C74.3939 92.1593 74.9745 91.789 75.6185 91.7574C80.0857 91.5378 82.8129 89.5565 85.6593 86.3035C85.8281 86.1106 86.0719 85.9999 86.3282 85.9999C86.5846 85.9999 86.8284 86.1106 86.9972 86.3035C89.8436 89.5565 92.5708 91.5378 97.038 91.7574C97.682 91.789 98.2626 92.1593 98.5611 92.712C99.6221 92.8534 100.635 93.3176 101.439 93.9896V89.1111C101.439 80.7654 94.6738 73.9999 86.3282 73.9999C77.9826 73.9999 71.2171 80.7654 71.2171 89.1111V93.9896ZM101.439 97.5417C101.435 96.7535 101.033 95.989 100.352 95.3987C99.8978 95.0048 99.3466 94.7144 98.7727 94.563V100.548C99.3466 100.397 99.8978 100.106 100.352 99.7123C101.033 99.122 101.435 98.3575 101.439 97.5693V97.5417ZM73.8838 94.563C73.3099 94.7144 72.7587 95.0048 72.3043 95.3987C71.6194 95.9925 71.2172 96.7625 71.2172 97.5555C71.2172 98.3485 71.6194 99.1185 72.3043 99.7123C72.7587 100.106 73.3099 100.397 73.8838 100.548V94.563ZM81.8841 111.665V113.164L86.3305 117.236L90.7727 113.164V111.665C89.6526 112.027 88.4577 112.222 87.2171 112.222H85.4394C84.1989 112.222 83.0041 112.027 81.8841 111.665ZM91.9524 114.495L86.9893 119.044C86.9891 119.044 86.9894 119.044 86.9893 119.044C86.8135 119.236 86.5726 119.334 86.3315 119.333C86.115 119.334 85.8984 119.256 85.7276 119.1L80.7046 114.495L80.6853 114.498C80.4012 114.538 79.9853 114.597 79.4573 114.671C79.2794 114.696 79.1029 114.721 78.9278 114.745C76.4093 115.097 74.1811 115.409 72.3903 115.755C71.4341 115.94 70.6248 116.131 69.9769 116.336C69.3148 116.545 68.8877 116.749 68.647 116.931C68.3763 117.136 68.0957 117.509 67.8381 118.117C67.583 118.72 67.3752 119.495 67.2143 120.429C66.9288 122.086 66.8063 124.149 66.7823 126.444L86.3282 126.444C86.3282 126.444 86.3282 126.444 86.3282 126.444L105.879 126.444C105.855 124.149 105.733 122.086 105.447 120.429C105.286 119.495 105.079 118.72 104.823 118.117C104.566 117.509 104.285 117.136 104.015 116.931C103.747 116.729 103.256 116.504 102.487 116.275C101.735 116.052 100.794 115.846 99.6845 115.646C98.0016 115.342 95.9923 115.061 93.7578 114.749C93.1709 114.666 92.5685 114.582 91.9524 114.495ZM86.3282 88.2174C83.503 91.2621 80.4576 93.2994 75.7058 93.533C75.6884 93.5339 75.6747 93.5411 75.6662 93.5497C75.6643 93.5516 75.6631 93.5532 75.6623 93.5544L75.6616 93.5555V100.667C75.6616 106.067 80.0392 110.444 85.4394 110.444H87.2171C92.6172 110.444 96.9949 106.067 96.9949 100.667V93.5555L96.9942 93.5544C96.9934 93.5532 96.9922 93.5516 96.9903 93.5497C96.9818 93.5411 96.9681 93.5338 96.9507 93.533C92.1989 93.2994 89.1534 91.2621 86.3282 88.2174Z" fill="#F5FDFF"/>
<path d="M35.17 33.36C33.43 33.36 31.88 32.93 30.52 32.07C29.16 31.21 28.09 29.97 27.31 28.35C26.55 26.71 26.17 24.76 26.17 22.5C26.17 20.24 26.55 18.3 27.31 16.68C28.09 15.04 29.16 13.79 30.52 12.93C31.88 12.07 33.43 11.64 35.17 11.64C36.91 11.64 38.46 12.07 39.82 12.93C41.18 13.79 42.24 15.04 43 16.68C43.78 18.3 44.17 20.24 44.17 22.5C44.17 24.76 43.78 26.71 43 28.35C42.24 29.97 41.18 31.21 39.82 32.07C38.46 32.93 36.91 33.36 35.17 33.36ZM35.17 29.25C36.45 29.25 37.45 28.7 38.17 27.6C38.91 26.5 39.28 24.8 39.28 22.5C39.28 20.2 38.91 18.5 38.17 17.4C37.45 16.3 36.45 15.75 35.17 15.75C33.91 15.75 32.91 16.3 32.17 17.4C31.45 18.5 31.09 20.2 31.09 22.5C31.09 24.8 31.45 26.5 32.17 27.6C32.91 28.7 33.91 29.25 35.17 29.25ZM62.0455 29.04V33L46.1755 33V29.85L54.2755 22.2C55.1355 21.38 55.7155 20.68 56.0155 20.1C56.3155 19.5 56.4655 18.91 56.4655 18.33C56.4655 17.49 56.1755 16.85 55.5955 16.41C55.0355 15.95 54.2055 15.72 53.1055 15.72C52.1855 15.72 51.3555 15.9 50.6155 16.26C49.8755 16.6 49.2555 17.12 48.7555 17.82L45.2155 15.54C46.0355 14.32 47.1655 13.37 48.6055 12.69C50.0455 11.99 51.6955 11.64 53.5555 11.64C55.1155 11.64 56.4755 11.9 57.6355 12.42C58.8155 12.92 59.7255 13.64 60.3655 14.58C61.0255 15.5 61.3555 16.59 61.3555 17.85C61.3555 18.99 61.1155 20.06 60.6355 21.06C60.1555 22.06 59.2255 23.2 57.8455 24.48L53.0155 29.04L62.0455 29.04Z" fill="#F5FDFF"/>
<defs>
<linearGradient id="paint0_linear" x1="15" y1="160" x2="173.688" y2="150.164" gradientUnits="userSpaceOnUse">
<stop stop-color="#4481EB"/>
<stop offset="1" stop-color="#04BEFE"/>
</linearGradient>
</defs>
</svg>
