<svg width="165" height="165" viewBox="0 0 165 165" fill="none" xmlns="http://www.w3.org/2000/svg">
<rect x="-1" y="1" width="148" height="148" transform="matrix(-1 0 0 1 163 15)" stroke="#43C8FF" stroke-width="2"/>
<rect width="150" height="150" transform="matrix(-1 0 0 1 150 0)" fill="url(#paint0_linear)"/>
<g clip-path="url(#clip0)">
<path fill-rule="evenodd" clip-rule="evenodd" d="M51.5552 57.9999C38.0549 57.9999 27.1108 68.9441 27.1108 82.4444C27.1108 95.9447 38.0549 106.889 51.5552 106.889C65.0555 106.889 75.9997 95.9447 75.9997 82.4444C75.9997 68.9441 65.0555 57.9999 51.5552 57.9999ZM25.333 82.4444C25.333 67.9623 37.0731 56.2222 51.5552 56.2222C66.0374 56.2222 77.7775 67.9623 77.7775 82.4444C77.7775 96.9265 66.0374 108.667 51.5552 108.667C37.0731 108.667 25.333 96.9265 25.333 82.4444Z" fill="#F5FDFF"/>
<path fill-rule="evenodd" clip-rule="evenodd" d="M51.5556 52.6664C35.1097 52.6664 21.7778 65.9984 21.7778 82.4442C21.7778 98.89 35.1097 112.222 51.5556 112.222C68.0014 112.222 81.3333 98.89 81.3333 82.4442C81.3333 65.9984 68.0014 52.6664 51.5556 52.6664ZM20 82.4442C20 65.0166 34.1279 50.8887 51.5556 50.8887C68.9832 50.8887 83.1111 65.0166 83.1111 82.4442C83.1111 99.8719 68.9832 114 51.5556 114C34.1279 114 20 99.8719 20 82.4442Z" fill="#F5FDFF"/>
<path fill-rule="evenodd" clip-rule="evenodd" d="M51.3714 67.149C51.7185 66.8019 52.2813 66.8019 52.6284 67.149L67.2951 81.8157C67.6422 82.1628 67.6422 82.7256 67.2951 83.0728C66.948 83.4199 66.3852 83.4199 66.038 83.0728L65.3332 82.368V94.4442C65.3332 94.9351 64.9353 95.3331 64.4443 95.3331H55.5554C55.0645 95.3331 54.6666 94.9351 54.6666 94.4442V86.4442H50.2221V94.4442C50.2221 94.9351 49.8241 95.3331 49.3332 95.3331H39.5554C39.0645 95.3331 38.6666 94.9351 38.6666 94.4442V82.368L37.9618 83.0728C37.6146 83.4199 37.0518 83.4199 36.7047 83.0728C36.3576 82.7256 36.3576 82.1628 36.7047 81.8157L51.3714 67.149ZM40.4443 80.5902V93.5553H48.4443V85.5553C48.4443 85.0644 48.8423 84.6664 49.3332 84.6664H55.5554C56.0464 84.6664 56.4443 85.0644 56.4443 85.5553V93.5553H63.5554V80.5902L51.9999 69.0346L40.4443 80.5902Z" fill="#F5FDFF"/>
<path fill-rule="evenodd" clip-rule="evenodd" d="M83.816 67.149C84.1631 66.8019 84.726 66.8019 85.0731 67.149L99.7398 81.8157C100.087 82.1628 100.087 82.7256 99.7398 83.0728C99.3926 83.4199 98.8298 83.4199 98.4827 83.0728L97.7779 82.368V94.4442C97.7779 94.9351 97.3799 95.3331 96.889 95.3331H88.0001C87.5092 95.3331 87.1112 94.9351 87.1112 94.4442V85.5553C87.1112 85.0644 87.5092 84.6664 88.0001 84.6664C88.491 84.6664 88.889 85.0644 88.889 85.5553V93.5553H96.0001V80.5902L83.816 68.4061C83.4689 68.059 83.4689 67.4962 83.816 67.149Z" fill="#F5FDFF"/>
<path fill-rule="evenodd" clip-rule="evenodd" d="M72.7506 110.661C73.0977 110.313 73.6606 110.313 74.0077 110.661L89.7736 126.426C91.5513 128.204 94.4335 128.204 96.2112 126.426C97.9889 124.649 97.9889 121.767 96.2112 119.989L87.6849 111.463L84.6393 114.617C84.2983 114.97 83.7356 114.98 83.3824 114.639C83.0292 114.298 83.0194 113.735 83.3603 113.382L87.0343 109.577C87.1999 109.405 87.4275 109.308 87.666 109.306C87.9044 109.303 88.1337 109.397 88.3023 109.566L97.4683 118.732C99.9402 121.204 99.9402 125.212 97.4683 127.684C94.9963 130.155 90.9885 130.155 88.5166 127.684L72.7506 111.918C72.4035 111.57 72.4035 111.008 72.7506 110.661ZM80.4452 102.966C80.7924 102.619 81.3552 102.619 81.7023 102.966L84.9964 106.26C85.3435 106.607 85.3435 107.17 84.9964 107.517C84.6492 107.864 84.0864 107.864 83.7393 107.517L80.4452 104.223C80.0981 103.876 80.0981 103.313 80.4452 102.966Z" fill="#F5FDFF"/>
</g>
<path d="M111.17 33.36C109.43 33.36 107.88 32.93 106.52 32.07C105.16 31.21 104.09 29.97 103.31 28.35C102.55 26.71 102.17 24.76 102.17 22.5C102.17 20.24 102.55 18.3 103.31 16.68C104.09 15.04 105.16 13.79 106.52 12.93C107.88 12.07 109.43 11.64 111.17 11.64C112.91 11.64 114.46 12.07 115.82 12.93C117.18 13.79 118.24 15.04 119 16.68C119.78 18.3 120.17 20.24 120.17 22.5C120.17 24.76 119.78 26.71 119 28.35C118.24 29.97 117.18 31.21 115.82 32.07C114.46 32.93 112.91 33.36 111.17 33.36ZM111.17 29.25C112.45 29.25 113.45 28.7 114.17 27.6C114.91 26.5 115.28 24.8 115.28 22.5C115.28 20.2 114.91 18.5 114.17 17.4C113.45 16.3 112.45 15.75 111.17 15.75C109.91 15.75 108.91 16.3 108.17 17.4C107.45 18.5 107.09 20.2 107.09 22.5C107.09 24.8 107.45 26.5 108.17 27.6C108.91 28.7 109.91 29.25 111.17 29.25ZM132.048 20.55C133.888 20.85 135.298 21.54 136.278 22.62C137.258 23.68 137.748 25 137.748 26.58C137.748 27.8 137.428 28.93 136.788 29.97C136.148 30.99 135.168 31.81 133.848 32.43C132.548 33.05 130.948 33.36 129.048 33.36C127.568 33.36 126.108 33.17 124.668 32.79C123.248 32.39 122.038 31.83 121.038 31.11L122.928 27.39C123.728 27.99 124.648 28.46 125.688 28.8C126.748 29.12 127.828 29.28 128.928 29.28C130.148 29.28 131.108 29.05 131.808 28.59C132.508 28.11 132.858 27.44 132.858 26.58C132.858 24.86 131.548 24 128.928 24H126.708V20.79L131.028 15.9L122.088 15.9V12L136.788 12V15.15L132.048 20.55Z" fill="#F5FDFF"/>
<defs>
<linearGradient id="paint0_linear" x1="5.1753e-07" y1="160" x2="158.688" y2="150.164" gradientUnits="userSpaceOnUse">
<stop stop-color="#4481EB"/>
<stop offset="1" stop-color="#04BEFE"/>
</linearGradient>
<clipPath id="clip0">
<rect width="80" height="80" fill="white" transform="translate(20 50)"/>
</clipPath>
</defs>
</svg>
