<svg width="165" height="165" viewBox="0 0 165 165" fill="none" xmlns="http://www.w3.org/2000/svg">
<rect x="-1" y="1" width="148" height="148" transform="matrix(-1 0 0 1 163 15)" stroke="#43C8FF" stroke-width="2"/>
<rect width="150" height="150" transform="matrix(-1 0 0 1 150 0)" fill="url(#paint0_linear)"/>
<g clip-path="url(#clip0)">
<path fill-rule="evenodd" clip-rule="evenodd" d="M82.6658 56.2227C82.9022 56.2227 83.1289 56.3168 83.2957 56.4844L93.5179 66.751C93.8643 67.0989 93.8631 67.6617 93.5152 68.0081C93.1673 68.3545 92.6045 68.3533 92.2581 68.0054L92.2281 67.9752V75.7782C92.2281 76.2691 91.8301 76.6671 91.3392 76.6671H85.1439C84.653 76.6671 84.255 76.2691 84.255 75.7782V70.4449H81.6961V75.7782C81.6961 76.2691 81.2981 76.6671 80.8072 76.6671H73.9924C73.5015 76.6671 73.1035 76.2691 73.1035 75.7782V67.9752L73.0735 68.0054C72.7271 68.3533 72.1643 68.3545 71.8164 68.0081C71.4685 67.6617 71.4673 67.0989 71.8137 66.751L82.0359 56.4844C82.2027 56.3168 82.4294 56.2227 82.6658 56.2227ZM74.8813 66.1897V74.8893H79.9183V69.556C79.9183 69.0651 80.3163 68.6671 80.8072 68.6671H85.1439C85.6348 68.6671 86.0328 69.0651 86.0328 69.556V74.8893H90.4503V66.1897L82.6658 58.3714L74.8813 66.1897Z" fill="#F5FDFF"/>
<path fill-rule="evenodd" clip-rule="evenodd" d="M82.6654 51.7778C74.0743 51.7778 67.1098 58.7422 67.1098 67.3333C67.1098 75.9244 74.0743 82.8889 82.6654 82.8889C91.2565 82.8889 98.2209 75.9244 98.2209 67.3333C98.2209 58.7422 91.2565 51.7778 82.6654 51.7778ZM65.332 67.3333C65.332 57.7604 73.0924 50 82.6654 50C92.2383 50 99.9987 57.7604 99.9987 67.3333C99.9987 76.9063 92.2383 84.6667 82.6654 84.6667C73.0924 84.6667 65.332 76.9063 65.332 67.3333Z" fill="#F5FDFF"/>
<path fill-rule="evenodd" clip-rule="evenodd" d="M22.9236 62.108C22.112 62.8569 21.7778 63.5724 21.7778 64.2227C21.7778 64.8729 22.112 65.5884 22.9236 66.3373C23.7362 67.0871 24.961 67.8031 26.5492 68.4229C29.7201 69.6603 34.1611 70.4449 39.1111 70.4449C44.0612 70.4449 48.5022 69.6603 51.673 68.4229C53.2612 67.8031 54.486 67.0871 55.2986 66.3373C56.1103 65.5884 56.4444 64.8729 56.4444 64.2227C56.4444 63.5724 56.1103 62.8569 55.2986 62.108C54.486 61.3583 53.2612 60.6422 51.673 60.0224C48.5022 58.785 44.0612 58.0004 39.1111 58.0004C34.1611 58.0004 29.7201 58.785 26.5492 60.0224C24.961 60.6422 23.7362 61.3583 22.9236 62.108ZM25.9029 58.3663C29.3272 57.03 33.9973 56.2227 39.1111 56.2227C44.2249 56.2227 48.895 57.03 52.3193 58.3663C54.0287 59.0333 55.4725 59.8496 56.5041 60.8014C57.5366 61.754 58.2222 62.9092 58.2222 64.2227C58.2222 65.5361 57.5366 66.6913 56.5041 67.6439C55.4725 68.5957 54.0287 69.412 52.3193 70.079C48.895 71.4153 44.2249 72.2227 39.1111 72.2227C33.9973 72.2227 29.3272 71.4153 25.9029 70.079C24.1935 69.412 22.7497 68.5957 21.7181 67.6439C20.6856 66.6913 20 65.5361 20 64.2227C20 62.9092 20.6856 61.754 21.7181 60.8014C22.7497 59.8496 24.1935 59.0333 25.9029 58.3663Z" fill="#F5FDFF"/>
<path fill-rule="evenodd" clip-rule="evenodd" d="M48.701 97.6627C47.8893 98.4116 47.5551 99.1271 47.5551 99.7773C47.5551 100.428 47.8893 101.143 48.701 101.892C49.5136 102.642 50.7383 103.358 52.3265 103.978C55.4974 105.215 59.9384 106 64.8885 106C69.8385 106 74.2795 105.215 77.4504 103.978C79.0386 103.358 80.2633 102.642 81.0759 101.892C81.8876 101.143 82.2218 100.428 82.2218 99.7773C82.2218 99.1271 81.8876 98.4116 81.0759 97.6627C80.2633 96.9129 79.0386 96.1969 77.4504 95.5771C74.2795 94.3397 69.8385 93.5551 64.8885 93.5551C59.9384 93.5551 55.4974 94.3397 52.3265 95.5771C50.7383 96.1969 49.5136 96.9129 48.701 97.6627ZM51.6802 93.921C55.1045 92.5847 59.7747 91.7773 64.8885 91.7773C70.0023 91.7773 74.6724 92.5847 78.0967 93.921C79.806 94.588 81.2499 95.4043 82.2814 96.3561C83.3139 97.3087 83.9996 98.4639 83.9996 99.7773C83.9996 101.091 83.3139 102.246 82.2814 103.199C81.2499 104.15 79.806 104.967 78.0967 105.634C74.6724 106.97 70.0023 107.777 64.8885 107.777C59.7747 107.777 55.1045 106.97 51.6802 105.634C49.9709 104.967 48.5271 104.15 47.4955 103.199C46.463 102.246 45.7773 101.091 45.7773 99.7773C45.7773 98.4639 46.463 97.3087 47.4955 96.3561C48.5271 95.4043 49.9709 94.588 51.6802 93.921Z" fill="#F5FDFF"/>
<path fill-rule="evenodd" clip-rule="evenodd" d="M20.8889 63.7773C21.3798 63.7773 21.7778 64.1753 21.7778 64.6662V71.3329C21.7778 71.9832 22.112 72.6987 22.9236 73.4476C23.7362 74.1973 24.961 74.9134 26.5492 75.5331C29.7201 76.7706 34.1611 77.5551 39.1111 77.5551C44.0612 77.5551 48.5022 76.7706 51.673 75.5331C53.2612 74.9134 54.486 74.1973 55.2986 73.4476C56.1103 72.6987 56.4444 71.9832 56.4444 71.3329V64.6662C56.4444 64.1753 56.8424 63.7773 57.3333 63.7773C57.8243 63.7773 58.2222 64.1753 58.2222 64.6662V93.1107C58.2222 93.6016 57.8243 93.9996 57.3333 93.9996C56.8424 93.9996 56.4444 93.6016 56.4444 93.1107V89.9407C55.4311 90.8603 54.0336 91.6507 52.3804 92.2997C48.9739 93.6371 44.3026 94.444 39.1111 94.444C33.9196 94.444 29.2483 93.6371 25.8418 92.2997C24.1886 91.6507 22.7911 90.8603 21.7778 89.9407V93.5551C21.7778 94.2054 22.112 94.9209 22.9236 95.6698C23.7362 96.4195 24.961 97.1356 26.5492 97.7554C29.7201 98.9928 34.1611 99.7773 39.1111 99.7773C41.7573 99.7773 44.2635 99.5531 46.5109 99.1529C46.9942 99.0669 47.4557 99.3889 47.5418 99.8722C47.6278 100.356 47.3058 100.817 46.8225 100.903C44.4662 101.323 41.8554 101.555 39.1111 101.555C33.9973 101.555 29.3272 100.748 25.9029 99.4115C24.2262 98.7572 22.8051 97.9594 21.7778 97.0309V100.666C21.7778 101.316 22.112 102.032 22.9236 102.781C23.7362 103.531 24.961 104.247 26.5492 104.866C29.7201 106.104 34.1611 106.888 39.1111 106.888C41.7573 106.888 44.2635 106.664 46.5109 106.264C46.9942 106.178 47.4557 106.5 47.5418 106.983C47.6278 107.467 47.3058 107.928 46.8225 108.014C44.4662 108.434 41.8554 108.666 39.1111 108.666C33.9973 108.666 29.3272 107.859 25.9029 106.523C24.2262 105.868 22.8051 105.07 21.7778 104.142V107.777C21.7778 108.428 22.112 109.143 22.9236 109.892C23.7362 110.642 24.961 111.358 26.5492 111.978C29.7201 113.215 34.1611 114 39.1111 114C41.7573 114 44.2635 113.775 46.5109 113.375C46.9942 113.289 47.4557 113.611 47.5418 114.094C47.6278 114.578 47.3058 115.039 46.8225 115.125C44.4662 115.545 41.8554 115.777 39.1111 115.777C33.9973 115.777 29.3272 114.97 25.9029 113.634C24.1935 112.967 22.7497 112.15 21.7181 111.199C20.6856 110.246 20 109.091 20 107.777V64.6662C20 64.1753 20.398 63.7773 20.8889 63.7773ZM21.7778 74.8086V79.3329C21.7778 79.9832 22.112 80.6987 22.9236 81.4476C23.7362 82.1973 24.961 82.9134 26.5492 83.5331C29.7201 84.7706 34.1611 85.5551 39.1111 85.5551C44.0612 85.5551 48.5022 84.7706 51.673 83.5331C53.2612 82.9134 54.486 82.1973 55.2986 81.4476C56.1103 80.6987 56.4444 79.9832 56.4444 79.3329V74.8086C55.4172 75.7371 53.996 76.535 52.3193 77.1893C48.895 78.5256 44.2249 79.3329 39.1111 79.3329C33.9973 79.3329 29.3272 78.5256 25.9029 77.1893C24.2262 76.535 22.8051 75.7371 21.7778 74.8086ZM56.4444 82.8086C55.4172 83.7371 53.996 84.535 52.3193 85.1893C48.895 86.5256 44.2249 87.3329 39.1111 87.3329C33.9973 87.3329 29.3272 86.5256 25.9029 85.1893C24.2262 84.535 22.8051 83.7371 21.7778 82.8086V86.444C21.7778 87.1003 22.1081 87.8168 22.9058 88.5627C23.7056 89.3107 24.9144 90.0257 26.4915 90.6449C29.6405 91.8812 34.0804 92.6662 39.1111 92.6662C44.1419 92.6662 48.5817 91.8812 51.7307 90.6449C53.3078 90.0257 54.5167 89.3107 55.3165 88.5627C56.1142 87.8168 56.4444 87.1003 56.4444 86.444V82.8086Z" fill="#F5FDFF"/>
<path fill-rule="evenodd" clip-rule="evenodd" d="M46.6662 99.334C47.1572 99.334 47.5551 99.732 47.5551 100.223V106.89C47.5551 107.54 47.8893 108.255 48.701 109.004C49.5136 109.754 50.7383 110.47 52.3265 111.09C55.4974 112.327 59.9384 113.112 64.8885 113.112C69.8385 113.112 74.2795 112.327 77.4504 111.09C79.0386 110.47 80.2633 109.754 81.0759 109.004C81.8876 108.255 82.2218 107.54 82.2218 106.89V100.223C82.2218 99.732 82.6198 99.334 83.1107 99.334C83.6016 99.334 83.9996 99.732 83.9996 100.223V122.001C83.9996 123.32 83.2983 124.476 82.2553 125.426C81.212 126.376 79.7546 127.191 78.0367 127.858C74.595 129.193 69.926 130.001 64.8885 130.001C60.1332 130.001 55.468 129.191 51.9618 127.86C50.212 127.196 48.7044 126.384 47.618 125.44C46.5371 124.5 45.7773 123.341 45.7773 122.001V100.223C45.7773 99.732 46.1753 99.334 46.6662 99.334ZM47.5551 110.365V114.89C47.5551 115.54 47.8893 116.255 48.701 117.004C49.5136 117.754 50.7383 118.47 52.3265 119.09C55.4974 120.327 59.9384 121.112 64.8885 121.112C69.8385 121.112 74.2795 120.327 77.4504 119.09C79.0386 118.47 80.2633 117.754 81.0759 117.004C81.8876 116.255 82.2218 115.54 82.2218 114.89V110.365C81.1945 111.294 79.7733 112.092 78.0967 112.746C74.6724 114.082 70.0023 114.89 64.8885 114.89C59.7747 114.89 55.1045 114.082 51.6802 112.746C50.0036 112.092 48.5824 111.294 47.5551 110.365ZM82.2218 118.365C81.1945 119.294 79.7733 120.092 78.0967 120.746C74.6724 122.082 70.0023 122.89 64.8885 122.89C59.7747 122.89 55.1045 122.082 51.6802 120.746C50.0036 120.092 48.5824 119.294 47.5551 118.365V122.001C47.5551 122.624 47.9065 123.335 48.784 124.098C49.6558 124.855 50.9538 125.576 52.5929 126.198C55.8645 127.44 60.3104 128.223 64.8885 128.223C69.7593 128.223 74.2014 127.439 77.3937 126.2C78.9928 125.58 80.2331 124.863 81.0583 124.111C81.8839 123.36 82.2218 122.645 82.2218 122.001V118.365Z" fill="#F5FDFF"/>
</g>
<path d="M111.17 33.36C109.43 33.36 107.88 32.93 106.52 32.07C105.16 31.21 104.09 29.97 103.31 28.35C102.55 26.71 102.17 24.76 102.17 22.5C102.17 20.24 102.55 18.3 103.31 16.68C104.09 15.04 105.16 13.79 106.52 12.93C107.88 12.07 109.43 11.64 111.17 11.64C112.91 11.64 114.46 12.07 115.82 12.93C117.18 13.79 118.24 15.04 119 16.68C119.78 18.3 120.17 20.24 120.17 22.5C120.17 24.76 119.78 26.71 119 28.35C118.24 29.97 117.18 31.21 115.82 32.07C114.46 32.93 112.91 33.36 111.17 33.36ZM111.17 29.25C112.45 29.25 113.45 28.7 114.17 27.6C114.91 26.5 115.28 24.8 115.28 22.5C115.28 20.2 114.91 18.5 114.17 17.4C113.45 16.3 112.45 15.75 111.17 15.75C109.91 15.75 108.91 16.3 108.17 17.4C107.45 18.5 107.09 20.2 107.09 22.5C107.09 24.8 107.45 26.5 108.17 27.6C108.91 28.7 109.91 29.25 111.17 29.25ZM138.854 12V15.15L131.054 33H125.774L133.304 15.96L126.344 15.96V19.38H122.024V12L138.854 12Z" fill="#F5FDFF"/>
<defs>
<linearGradient id="paint0_linear" x1="5.1753e-07" y1="160" x2="158.688" y2="150.164" gradientUnits="userSpaceOnUse">
<stop stop-color="#4481EB"/>
<stop offset="1" stop-color="#04BEFE"/>
</linearGradient>
<clipPath id="clip0">
<rect width="80" height="80" fill="white" transform="translate(20 50)"/>
</clipPath>
</defs>
</svg>
