<svg width="52" height="70" viewBox="0 0 52 70" fill="none" xmlns="http://www.w3.org/2000/svg">
<path fill-rule="evenodd" clip-rule="evenodd" d="M40.399 43.8635L37.198 49.0577L31.1435 48.3269L26.0003 51.6094L20.8571 48.3269L14.8025 49.0578L11.6015 43.8636L5.82486 41.8935L5.18488 35.8263L0.838867 31.5479L2.90523 25.8047L0.838867 20.0616L5.18502 15.7829L5.825 9.71592L11.6016 7.7458L14.8026 2.55158L20.8571 3.28262L26.0003 0L31.1435 3.28234L37.1981 2.55131L40.3991 7.74566L46.1758 9.71578L46.8157 15.7828L51.1618 20.0614L49.0954 25.8046L51.1618 31.5476L46.8156 35.8262L46.1756 41.8934L40.399 43.8635ZM26.0003 8.10934C16.2431 8.10934 8.30494 16.0475 8.30494 25.8047C8.30494 35.5619 16.2431 43.5001 26.0003 43.5001C35.7575 43.5001 43.6957 35.5619 43.6957 25.8047C43.6957 16.0475 35.7575 8.10934 26.0003 8.10934ZM12.6866 53.4472L19.889 52.5777L24.5374 55.5445L19.9125 70L12.0532 63.7192L2.00781 64.2716L7.58771 46.831L8.88135 47.272L12.6866 53.4472ZM43.1192 47.2722L39.3138 53.4472L32.1116 52.5777L27.4631 55.5445L32.0881 70L39.9473 63.7192L49.9927 64.2716L44.4128 46.831L43.1192 47.2722ZM26.0006 12.2136C18.5063 12.2136 12.4093 18.3106 12.4093 25.8048C12.4093 33.299 18.5063 39.396 26.0006 39.396C33.4948 39.396 39.5918 33.299 39.5918 25.8048C39.5918 18.3106 33.4948 12.2136 26.0006 12.2136ZM30.0299 27.2389L33.2307 24.9142C33.4523 24.7532 33.6173 24.5262 33.702 24.2657C33.7868 24.0052 33.7868 23.7246 33.7021 23.4641C33.6175 23.2036 33.4524 22.9767 33.2308 22.8156C33.009 22.6546 32.7421 22.5679 32.4682 22.5678H28.5117L27.289 18.8064C27.2042 18.546 27.0392 18.319 26.8176 18.1581C26.5959 17.9971 26.3289 17.9104 26.0549 17.9104C25.781 17.9104 25.5141 17.9971 25.2923 18.1581C25.0707 18.319 24.9057 18.546 24.821 18.8064L23.5981 22.5678H19.6418C19.3679 22.5679 19.1008 22.6546 18.8792 22.8156C18.6576 22.9767 18.4926 23.2036 18.4079 23.4641C18.3233 23.7246 18.3233 24.0052 18.4079 24.2657C18.4926 24.5262 18.6576 24.7532 18.8792 24.9142L22.08 27.2389L20.8572 31.0003C20.7723 31.2609 20.7722 31.5416 20.8568 31.8022C20.9415 32.0629 21.1065 32.29 21.3283 32.4511C21.55 32.6122 21.8172 32.6989 22.0913 32.6989C22.3654 32.6989 22.6326 32.612 22.8542 32.4508L26.0549 30.1262L29.2557 32.4508C29.4775 32.612 29.7445 32.6989 30.0186 32.6989C30.2928 32.6989 30.5599 32.6122 30.7816 32.4511C31.0034 32.29 31.1684 32.0629 31.2531 31.8022C31.3377 31.5416 31.3376 31.2609 31.2527 31.0003L30.0299 27.2389Z" fill="url(#paint0_linear)"/>
<defs>
<linearGradient id="paint0_linear" x1="0.838867" y1="74.6667" x2="54.175" y2="72.2901" gradientUnits="userSpaceOnUse">
<stop stop-color="#4481EB"/>
<stop offset="1" stop-color="#04BEFE"/>
</linearGradient>
</defs>
</svg>
