<svg width="165" height="165" viewBox="0 0 165 165" fill="none" xmlns="http://www.w3.org/2000/svg">
<rect x="-1" y="1" width="148" height="148" transform="matrix(-1 0 0 1 148 15)" stroke="#43C8FF" stroke-width="2"/>
<rect width="150" height="150" transform="matrix(1 0 0 -1 15 150)" fill="url(#paint0_linear)"/>
<path fill-rule="evenodd" clip-rule="evenodd" d="M73.4393 89.0891C73.4393 79.7616 81.0007 72.2002 90.3282 72.2002C99.6557 72.2002 107.217 79.7616 107.217 89.0891V97.515C107.217 97.5212 107.217 97.5274 107.217 97.5335C107.217 97.5397 107.217 97.5459 107.217 97.552V97.978C107.217 98.1093 107.189 98.234 107.137 98.3462C106.925 99.419 106.308 100.348 105.517 101.034C104.722 101.723 103.71 102.206 102.645 102.365C102.09 106.084 99.7631 109.224 96.5505 110.898V112.762C97.0324 112.83 97.5076 112.896 97.9748 112.962C100.22 113.276 102.279 113.564 104 113.874C105.136 114.079 106.151 114.299 106.993 114.549C107.818 114.794 108.558 115.092 109.086 115.491C109.698 115.953 110.136 116.636 110.461 117.402C110.788 118.175 111.025 119.094 111.199 120.105C111.547 122.125 111.662 124.63 111.662 127.311C111.662 127.547 111.568 127.773 111.401 127.94C111.235 128.107 111.008 128.2 110.773 128.2H69.8889C69.6531 128.2 69.427 128.107 69.2603 127.94C69.0937 127.773 69 127.547 69 127.311C69 124.63 69.1143 122.125 69.4624 120.105C69.6365 119.094 69.874 118.175 70.201 117.402C70.5254 116.636 70.9637 115.953 71.5752 115.491C72.0582 115.126 72.7145 114.848 73.4408 114.619C74.1814 114.384 75.0655 114.179 76.0529 113.988C77.8914 113.632 80.1646 113.315 82.6632 112.965C82.8445 112.94 83.027 112.914 83.2107 112.888C83.5606 112.839 83.8611 112.797 84.1063 112.762V110.899C80.8935 109.224 78.5662 106.084 78.011 102.365C76.9465 102.206 75.9349 101.723 75.1398 101.034C74.3486 100.348 73.7314 99.4192 73.5191 98.3465C73.4679 98.2342 73.4393 98.1094 73.4393 97.978V89.0891ZM75.2171 93.9677C76.0213 93.2957 77.0344 92.8315 78.0955 92.69C78.0955 92.2002 78.9745 91.767 79.6185 91.7354C84.0857 91.5158 86.8129 89.5346 89.6593 86.2815C89.8281 86.0886 90.0719 85.978 90.3282 85.978C90.5846 85.978 90.8284 86.0886 90.9972 86.2815C93.8436 89.5346 96.5708 91.5158 101.038 91.7354C101.682 91.767 102.561 92.2002 102.561 92.69C103.622 92.8315 104.635 93.2956 105.439 93.9676V89.0891C105.439 80.7434 98.6738 73.978 90.3282 73.978C81.9826 73.978 75.2171 80.7434 75.2171 89.0891V93.9677ZM105.439 97.5197C105.435 96.7316 105.033 95.9671 104.352 95.3767C103.898 94.9828 103.347 94.6924 102.773 94.541V100.526C103.347 100.375 103.898 100.084 104.352 99.6903C105.033 99.1 105.435 98.3355 105.439 97.5473V97.5197ZM77.8838 94.541C77.3099 94.6924 76.7587 94.9828 76.3043 95.3767C75.6194 95.9705 75.2172 96.7405 75.2172 97.5335C75.2172 98.3266 75.6194 99.0965 76.3043 99.6903C76.7587 100.084 77.3099 100.375 77.8838 100.526V94.541ZM85.8841 111.643V113.142L90.3305 117.214L94.7727 113.143V111.643C93.6526 112.005 92.4577 112.2 91.2171 112.2H89.4393C88.1989 112.2 87.0041 112.005 85.8841 111.643ZM95.9524 114.473L90.9893 119.022C90.8135 119.214 90.5726 119.312 90.3315 119.311C90.115 119.312 89.8984 119.234 89.7276 119.078L84.7046 114.473L84.6853 114.476C84.4012 114.516 83.9853 114.575 83.4573 114.649C83.2794 114.674 83.1029 114.699 82.9277 114.723C80.4093 115.075 78.1811 115.387 76.3903 115.733C75.4341 115.918 74.6248 116.109 73.9769 116.314C73.3148 116.523 72.8877 116.728 72.647 116.909C72.3763 117.114 72.0957 117.487 71.8381 118.095C71.583 118.698 71.3752 119.473 71.2143 120.407C70.9288 122.064 70.8063 124.127 70.7823 126.422L90.3282 126.422L109.879 126.422C109.855 124.127 109.733 122.064 109.447 120.407C109.286 119.473 109.079 118.698 108.823 118.095C108.566 117.487 108.285 117.114 108.015 116.909C107.747 116.707 107.256 116.482 106.487 116.253C105.735 116.03 104.794 115.824 103.685 115.624C102.002 115.32 99.9923 115.039 97.7578 114.727C97.1709 114.644 96.5685 114.56 95.9524 114.473ZM90.3282 88.1954C87.503 91.2402 84.4576 93.2775 79.7058 93.511C79.6884 93.5119 79.6747 93.5191 79.6662 93.5277C79.6643 93.5296 79.6623 93.5324 79.6623 93.5324L79.6616 93.5335V100.645C79.6616 106.045 84.0392 110.422 89.4393 110.422H91.2171C96.6172 110.422 100.995 106.045 100.995 100.645V93.5335L100.994 93.5324C100.994 93.5324 100.992 93.5296 100.99 93.5277C100.982 93.5191 100.968 93.5119 100.951 93.511C96.1989 93.2775 93.1534 91.2402 90.3282 88.1954Z" fill="#F5FDFF"/>
<path fill-rule="evenodd" clip-rule="evenodd" d="M91.882 54.6C91.882 53.7163 92.5984 53 93.482 53H104.306C105.189 53 105.906 53.7163 105.906 54.6V56.8824C105.906 57.7502 105.215 58.4567 104.353 58.4817L104.353 61.2232L114.218 53.5505C114.795 53.1011 115.605 53.1011 116.182 53.5505L136.643 69.4644L140.034 71.8863C141.3 72.791 140.66 74.7882 139.104 74.7882H136.965V105.8C136.965 106.684 136.248 107.4 135.365 107.4H132.8C132.358 107.4 132 107.042 132 106.6C132 106.158 132.358 105.8 132.8 105.8H135.365V74.7882C135.365 73.9046 136.081 73.1882 136.965 73.1882H139.104L135.7 70.7569L135.686 70.7474L135.674 70.7374L115.2 54.8135L94.7264 70.7374L94.7136 70.7474L94.7003 70.7569L91.3197 73.1716C90.7182 73.0917 90.1714 73.0468 89.7002 73.0231C89.7396 72.5992 89.95 72.1837 90.3664 71.8863L93.4351 69.6943V58.4823C92.5732 58.4575 91.882 57.7503 91.882 56.8824V54.6ZM98.8001 107.4H109.6C110.042 107.4 110.4 107.042 110.4 106.6C110.4 106.158 110.042 105.8 109.6 105.8H99.4858L98.8001 107.4ZM94.8075 73.9649C94.5276 73.4995 94.0178 73.1882 93.4353 73.1882H91.4421C92.4498 73.3283 93.6034 73.5666 94.8075 73.9649ZM102.753 58.4824H95.0351V68.4703L102.753 62.4677V58.4824ZM104.306 56.8824H102.761L102.753 56.8823H95.0351L95.0266 56.8824H93.482V54.6L104.306 54.6V56.8824Z" fill="#F5FDFF"/>
<path d="M111 110.357C111 109.043 111.745 107.903 112.829 107.347C112.3 106.708 112.027 105.906 112.056 105.062C112.119 103.27 113.637 101.812 115.441 101.812H118.046V97.6293C118.046 95.6281 119.651 94 121.625 94C123.599 94 125.205 95.6281 125.205 97.6293V102.04C128.529 102.876 131 105.925 131 109.55V115.263C131 119.529 127.576 123 123.368 123H116.53C114.989 123 113.741 121.8 113.687 120.268C113.665 119.654 113.835 119.067 114.168 118.572C113.05 118.028 112.275 116.869 112.275 115.529C112.275 114.742 112.543 114.018 112.991 113.444C111.82 112.921 111 111.735 111 110.357ZM123.655 97.6293C123.655 96.4945 122.745 95.5712 121.625 95.5712C120.506 95.5712 119.595 96.4945 119.595 97.6293V101.812H123.368C123.464 101.812 123.56 101.816 123.655 101.82V97.6293H123.655ZM114.326 112.157H115.601H121.366C121.794 112.157 122.141 112.509 122.141 112.943C122.141 113.377 121.794 113.729 121.366 113.729H115.601C114.622 113.729 113.825 114.536 113.825 115.529C113.825 116.522 114.622 117.33 115.601 117.33H121.366C121.794 117.33 122.141 117.682 122.141 118.116C122.141 118.55 121.794 118.901 121.366 118.901H116.481C116.14 118.901 115.821 119.039 115.584 119.288C115.347 119.536 115.223 119.865 115.236 120.212C115.259 120.883 115.84 121.429 116.53 121.429H123.368C126.722 121.429 129.45 118.663 129.45 115.262V109.55C129.45 106.149 126.722 103.383 123.368 103.383H115.441C114.462 103.383 113.638 104.161 113.605 105.118C113.588 105.612 113.764 106.079 114.102 106.434C114.44 106.789 114.894 106.985 115.38 106.985H121.367C121.794 106.985 122.141 107.336 122.141 107.77C122.141 108.204 121.794 108.556 121.367 108.556H114.326C113.347 108.556 112.55 109.364 112.55 110.357C112.55 111.349 113.346 112.157 114.326 112.157Z" fill="#F5FDFF"/>
<path d="M35.17 33.36C33.43 33.36 31.88 32.93 30.52 32.07C29.16 31.21 28.09 29.97 27.31 28.35C26.55 26.71 26.17 24.76 26.17 22.5C26.17 20.24 26.55 18.3 27.31 16.68C28.09 15.04 29.16 13.79 30.52 12.93C31.88 12.07 33.43 11.64 35.17 11.64C36.91 11.64 38.46 12.07 39.82 12.93C41.18 13.79 42.24 15.04 43 16.68C43.78 18.3 44.17 20.24 44.17 22.5C44.17 24.76 43.78 26.71 43 28.35C42.24 29.97 41.18 31.21 39.82 32.07C38.46 32.93 36.91 33.36 35.17 33.36ZM35.17 29.25C36.45 29.25 37.45 28.7 38.17 27.6C38.91 26.5 39.28 24.8 39.28 22.5C39.28 20.2 38.91 18.5 38.17 17.4C37.45 16.3 36.45 15.75 35.17 15.75C33.91 15.75 32.91 16.3 32.17 17.4C31.45 18.5 31.09 20.2 31.09 22.5C31.09 24.8 31.45 26.5 32.17 27.6C32.91 28.7 33.91 29.25 35.17 29.25ZM56.6413 19.83C57.9813 19.83 59.2013 20.1 60.3013 20.64C61.4013 21.18 62.2713 21.95 62.9113 22.95C63.5513 23.93 63.8713 25.07 63.8713 26.37C63.8713 27.77 63.5213 29 62.8213 30.06C62.1213 31.12 61.1613 31.94 59.9413 32.52C58.7413 33.08 57.4013 33.36 55.9213 33.36C52.9813 33.36 50.6813 32.46 49.0213 30.66C47.3613 28.86 46.5313 26.29 46.5313 22.95C46.5313 20.57 46.9813 18.53 47.8813 16.83C48.7813 15.13 50.0313 13.84 51.6313 12.96C53.2513 12.08 55.1213 11.64 57.2413 11.64C58.3613 11.64 59.4313 11.77 60.4513 12.03C61.4913 12.27 62.3713 12.62 63.0913 13.08L61.2913 16.65C60.2513 15.95 58.9413 15.6 57.3613 15.6C55.5813 15.6 54.1713 16.12 53.1313 17.16C52.0913 18.2 51.5313 19.71 51.4513 21.69C52.6913 20.45 54.4213 19.83 56.6413 19.83ZM55.6513 29.73C56.6913 29.73 57.5313 29.45 58.1713 28.89C58.8313 28.33 59.1613 27.57 59.1613 26.61C59.1613 25.65 58.8313 24.89 58.1713 24.33C57.5313 23.75 56.6713 23.46 55.5913 23.46C54.5313 23.46 53.6613 23.76 52.9813 24.36C52.3013 24.94 51.9613 25.69 51.9613 26.61C51.9613 27.53 52.2913 28.28 52.9513 28.86C53.6113 29.44 54.5113 29.73 55.6513 29.73Z" fill="#F5FDFF"/>
<defs>
<linearGradient id="paint0_linear" x1="5.1753e-07" y1="160" x2="158.688" y2="150.164" gradientUnits="userSpaceOnUse">
<stop stop-color="#4481EB"/>
<stop offset="1" stop-color="#04BEFE"/>
</linearGradient>
</defs>
</svg>
