<svg width="165" height="165" viewBox="0 0 165 165" fill="none" xmlns="http://www.w3.org/2000/svg">
<rect x="-1" y="1" width="148" height="148" transform="matrix(-1 0 0 1 163 15)" stroke="#43C8FF" stroke-width="2"/>
<rect width="150" height="150" transform="matrix(-1 0 0 1 150 0)" fill="url(#paint0_linear)"/>
<path fill-rule="evenodd" clip-rule="evenodd" d="M26.1689 89.3935C26.1689 81.8824 32.2579 75.7935 39.7689 75.7935H49.3252C56.8363 75.7935 62.9252 81.8824 62.9252 89.3935V118.668C62.9252 121.761 60.418 124.268 57.3252 124.268H31.7689C28.6762 124.268 26.1689 121.761 26.1689 118.668V89.3935ZM39.7689 77.3935C33.1415 77.3935 27.7689 82.766 27.7689 89.3935V118.668C27.7689 120.878 29.5598 122.668 31.7689 122.668H57.3252C59.5343 122.668 61.3252 120.878 61.3252 118.668V89.3935C61.3252 82.766 55.9526 77.3935 49.3252 77.3935H39.7689Z" fill="#F5FDFF"/>
<path fill-rule="evenodd" clip-rule="evenodd" d="M42.1006 61.6999C42.1006 56.8398 46.0405 52.8999 50.9006 52.8999H74.1006C78.9607 52.8999 82.9006 56.8398 82.9006 61.6999V109.7H81.3006V61.6999C81.3006 57.7235 78.077 54.4999 74.1006 54.4999H50.9006C46.9241 54.4999 43.7006 57.7235 43.7006 61.6999V69.6999H45.3006V62.4999C45.3006 58.9653 48.166 56.0999 51.7006 56.0999H73.3006C76.8352 56.0999 79.7006 58.9653 79.7006 62.4999V109.7H78.1006V62.4999C78.1006 59.8489 75.9516 57.6999 73.3006 57.6999H51.7006C49.0496 57.6999 46.9006 59.8489 46.9006 62.4999V71.2999H42.1006V61.6999Z" fill="#F5FDFF"/>
<path fill-rule="evenodd" clip-rule="evenodd" d="M64.5 122.427C64.5 117.165 68.7655 112.9 74.0273 112.9H86.1727C91.4345 112.9 95.7 117.165 95.7 122.427C95.7 124.676 93.8766 126.5 91.6273 126.5H68.5727C66.3234 126.5 64.5 124.676 64.5 122.427ZM74.0273 114.5C69.6492 114.5 66.1 118.049 66.1 122.427C66.1 123.793 67.2071 124.9 68.5727 124.9H91.6273C92.9929 124.9 94.1 123.793 94.1 122.427C94.1 118.049 90.5508 114.5 86.1727 114.5H74.0273Z" fill="#F5FDFF"/>
<path fill-rule="evenodd" clip-rule="evenodd" d="M26.1004 112.9C25.2167 112.9 24.5004 113.616 24.5004 114.5V124.9C24.5004 125.783 25.2167 126.5 26.1004 126.5H29.3004C30.184 126.5 30.9004 125.783 30.9004 124.9V123.7H32.5004V124.9C32.5004 126.667 31.0677 128.1 29.3004 128.1H26.1004C24.3331 128.1 22.9004 126.667 22.9004 124.9V114.5C22.9004 112.732 24.3331 111.3 26.1004 111.3H26.9004V112.9H26.1004Z" fill="#F5FDFF"/>
<path fill-rule="evenodd" clip-rule="evenodd" d="M62.9006 112.9C63.7842 112.9 64.5006 113.616 64.5006 114.5V124.9C64.5006 125.783 63.7842 126.5 62.9006 126.5H59.7006C58.8169 126.5 58.1006 125.783 58.1006 124.9V123.7H56.5006V124.9C56.5006 126.667 57.9333 128.1 59.7006 128.1H62.9006C64.6679 128.1 66.1006 126.667 66.1006 124.9V114.5C66.1006 112.732 64.6679 111.3 62.9006 111.3H62.1006V112.9H62.9006Z" fill="#F5FDFF"/>
<path fill-rule="evenodd" clip-rule="evenodd" d="M36.5008 117.7C36.5008 118.142 36.859 118.5 37.3008 118.5H51.7008C52.1426 118.5 52.5008 118.142 52.5008 117.7C52.5008 117.258 52.1426 116.9 51.7008 116.9H37.3008C36.859 116.9 36.5008 117.258 36.5008 117.7ZM37.3008 113.7C37.3008 114.142 37.659 114.5 38.1008 114.5H50.9008C51.3426 114.5 51.7008 114.142 51.7008 113.7C51.7008 113.258 51.3426 112.9 50.9008 112.9H38.1008C37.659 112.9 37.3008 113.258 37.3008 113.7ZM36.5008 109.7C36.5008 110.142 36.859 110.5 37.3008 110.5H51.7008C52.1426 110.5 52.5008 110.142 52.5008 109.7C52.5008 109.258 52.1426 108.9 51.7008 108.9H37.3008C36.859 108.9 36.5008 109.258 36.5008 109.7ZM33.3008 92.9C33.3008 99.0856 38.3152 104.1 44.5008 104.1C50.6864 104.1 55.7008 99.0856 55.7008 92.9V78.1C55.7008 77.6582 55.3426 77.3 54.9008 77.3C54.459 77.3 54.1008 77.6582 54.1008 78.1V92.9C54.1008 98.2019 49.8027 102.5 44.5008 102.5C39.1988 102.5 34.9008 98.2019 34.9008 92.9V78.1C34.9008 77.6582 34.5426 77.3 34.1008 77.3C33.659 77.3 33.3008 77.6582 33.3008 78.1V92.9Z" fill="#F5FDFF"/>
<path fill-rule="evenodd" clip-rule="evenodd" d="M38.9004 73.6997C38.9004 71.4906 40.6913 69.6997 42.9004 69.6997H46.1004C48.3095 69.6997 50.1004 71.4906 50.1004 73.6997V76.8997H48.5004V73.6997C48.5004 72.3742 47.4259 71.2997 46.1004 71.2997H42.9004C41.5749 71.2997 40.5004 72.3742 40.5004 73.6997V76.8997H38.9004V73.6997Z" fill="#F5FDFF"/>
<path fill-rule="evenodd" clip-rule="evenodd" d="M75.7002 112.9C75.7002 110.691 77.4911 108.9 79.7002 108.9H81.3002C83.5093 108.9 85.3002 110.691 85.3002 112.9V113.7H83.7002V112.9C83.7002 111.574 82.6257 110.5 81.3002 110.5H79.7002C78.3747 110.5 77.3002 111.574 77.3002 112.9V113.7H75.7002V112.9Z" fill="#F5FDFF"/>
<path d="M111.17 33.36C109.43 33.36 107.88 32.93 106.52 32.07C105.16 31.21 104.09 29.97 103.31 28.35C102.55 26.71 102.17 24.76 102.17 22.5C102.17 20.24 102.55 18.3 103.31 16.68C104.09 15.04 105.16 13.79 106.52 12.93C107.88 12.07 109.43 11.64 111.17 11.64C112.91 11.64 114.46 12.07 115.82 12.93C117.18 13.79 118.24 15.04 119 16.68C119.78 18.3 120.17 20.24 120.17 22.5C120.17 24.76 119.78 26.71 119 28.35C118.24 29.97 117.18 31.21 115.82 32.07C114.46 32.93 112.91 33.36 111.17 33.36ZM111.17 29.25C112.45 29.25 113.45 28.7 114.17 27.6C114.91 26.5 115.28 24.8 115.28 22.5C115.28 20.2 114.91 18.5 114.17 17.4C113.45 16.3 112.45 15.75 111.17 15.75C109.91 15.75 108.91 16.3 108.17 17.4C107.45 18.5 107.09 20.2 107.09 22.5C107.09 24.8 107.45 26.5 108.17 27.6C108.91 28.7 109.91 29.25 111.17 29.25ZM138.854 12V15.15L131.054 33H125.774L133.304 15.96L126.344 15.96V19.38H122.024V12L138.854 12Z" fill="#F5FDFF"/>
<defs>
<linearGradient id="paint0_linear" x1="5.1753e-07" y1="160" x2="158.688" y2="150.164" gradientUnits="userSpaceOnUse">
<stop stop-color="#4481EB"/>
<stop offset="1" stop-color="#04BEFE"/>
</linearGradient>
</defs>
</svg>
