<svg width="165" height="165" viewBox="0 0 165 165" fill="none" xmlns="http://www.w3.org/2000/svg">
<rect x="-1" y="1" width="148" height="148" transform="matrix(-1 0 0 1 163 15)" stroke="#43C8FF" stroke-width="2"/>
<rect width="150" height="150" transform="matrix(-1 0 0 1 150 0)" fill="url(#paint0_linear)"/>
<path fill-rule="evenodd" clip-rule="evenodd" d="M74.2218 54.4444C74.2218 51.9898 76.2116 50 78.6662 50H95.5551C98.0097 50 99.9996 51.9898 99.9996 54.4444V63.3333C99.9996 65.7879 98.0097 67.7778 95.5551 67.7778H92.2687L81.826 74.7396C81.5204 74.9433 81.121 74.9381 80.8209 74.7266C80.5207 74.515 80.3815 74.1407 80.4705 73.7844L81.9722 67.7778H78.6662C76.2116 67.7778 74.2218 65.7879 74.2218 63.3333V54.4444ZM78.6662 51.7778C77.1935 51.7778 75.9996 52.9717 75.9996 54.4444V63.3333C75.9996 64.8061 77.1935 66 78.6662 66H81.9722C83.1288 66 83.9774 67.0869 83.6969 68.209L82.7529 71.985L91.2826 66.2986C91.5746 66.1039 91.9177 66 92.2687 66H95.5551C97.0279 66 98.2218 64.8061 98.2218 63.3333V54.4444C98.2218 52.9717 97.0279 51.7778 95.5551 51.7778H78.6662ZM59.9994 56.2222C43.6563 56.2222 30.0229 67.8298 26.8959 83.2502L30.6239 80.8117C31.0347 80.5429 31.5856 80.6581 31.8544 81.069C32.1231 81.4798 32.0079 82.0307 31.5971 82.2994L26.1613 85.855C25.9634 85.9844 25.7221 86.0297 25.4908 85.9808C25.2594 85.9318 25.0571 85.7927 24.9286 85.5942L21.4754 80.2609C21.2086 79.8488 21.3264 79.2984 21.7385 79.0316C22.1506 78.7648 22.7009 78.8826 22.9677 79.2947L25.1889 82.7252C28.5466 66.5773 42.8554 54.4444 59.9994 54.4444C63.3649 54.4444 66.6226 54.9123 69.7104 55.787C70.1827 55.9209 70.4571 56.4122 70.3233 56.8846C70.1895 57.3569 69.6981 57.6313 69.2258 57.4975C66.2942 56.667 63.1994 56.2222 59.9994 56.2222ZM79.1107 56.2222C79.1107 55.7313 79.5086 55.3333 79.9996 55.3333H94.2218C94.7127 55.3333 95.1107 55.7313 95.1107 56.2222C95.1107 56.7131 94.7127 57.1111 94.2218 57.1111H79.9996C79.5086 57.1111 79.1107 56.7131 79.1107 56.2222ZM79.1107 61.5556C79.1107 61.0646 79.5086 60.6667 79.9996 60.6667H88.8885C89.3794 60.6667 89.7773 61.0646 89.7773 61.5556C89.7773 62.0465 89.3794 62.4444 88.8885 62.4444H79.9996C79.5086 62.4444 79.1107 62.0465 79.1107 61.5556ZM91.9996 61.5556C91.9996 61.0646 92.3975 60.6667 92.8885 60.6667H94.2218C94.7127 60.6667 95.1107 61.0646 95.1107 61.5556C95.1107 62.0465 94.7127 62.4444 94.2218 62.4444H92.8885C92.3975 62.4444 91.9996 62.0465 91.9996 61.5556ZM43.1105 80.222C43.1105 70.8946 50.6719 63.3331 59.9994 63.3331C69.3268 63.3331 76.8882 70.8946 76.8882 80.222V88.6505C76.8883 88.6558 76.8883 88.6611 76.8883 88.6665C76.8883 88.6718 76.8883 88.6772 76.8882 88.6825V93.9998C76.8882 96.4544 74.8984 98.4443 72.4438 98.4443H70.328C69.2678 99.9427 67.8598 101.178 66.2216 102.031V103.895C66.7035 103.963 67.1788 104.029 67.646 104.095C69.8909 104.409 71.9505 104.697 73.6714 105.007C74.8074 105.212 75.8221 105.431 76.6645 105.682C77.4888 105.927 78.2293 106.225 78.7575 106.624C79.8412 107.443 80.805 109.083 81.6445 111.038C82.504 113.04 83.2988 115.532 83.9729 118.229C84.0392 118.494 83.9796 118.776 83.8111 118.991C83.6427 119.207 83.3842 119.333 83.1105 119.333L55.7125 119.333L57.6534 121.201C57.8254 121.366 57.9236 121.594 57.9259 121.833C57.9282 122.071 57.8344 122.301 57.6656 122.47L53.607 126.528C49.7885 130.347 43.5975 130.347 39.7791 126.528L23.5552 110.305C19.7368 106.486 19.7368 100.295 23.5553 96.4768L27.6139 92.4181C27.9589 92.0731 28.5177 92.0707 28.8656 92.4129L37.067 100.477C37.236 100.643 37.3317 100.87 37.3327 101.107C37.3337 101.344 37.24 101.572 37.0723 101.739L33.1802 105.632C32.4859 106.326 32.4859 107.452 33.1802 108.146L37.7063 112.672C38.1467 111.475 38.612 110.393 39.0945 109.471C39.7321 108.253 40.4456 107.225 41.2415 106.624C41.7698 106.225 42.5103 105.927 43.3346 105.682C44.177 105.431 45.1916 105.212 46.3277 105.007C48.0485 104.697 50.1082 104.409 52.353 104.095C52.8203 104.029 53.2955 103.963 53.7774 103.895L53.7774 102.032C50.5646 100.357 48.2373 97.2171 47.6822 93.4981C46.6176 93.3386 45.606 92.8558 44.8109 92.1665C44.0197 91.4806 43.4025 90.5521 43.1902 89.4794C43.139 89.3671 43.1105 89.2424 43.1105 89.1109V80.222ZM44.8882 85.1006C45.6924 84.4286 46.7055 83.9644 47.7666 83.8229C48.065 83.2703 48.6456 82.9 49.2896 82.8683C53.7569 82.6488 56.484 80.6675 59.3304 77.4145C59.4992 77.2216 59.7431 77.1109 59.9994 77.1109C60.2557 77.1109 60.4996 77.2216 60.6683 77.4145C63.5147 80.6675 66.2419 82.6488 70.7091 82.8683C71.3532 82.9 71.9337 83.2703 72.2322 83.8229C73.2933 83.9644 74.3063 84.4286 75.1105 85.1006V80.222C75.1105 71.8764 68.345 65.1109 59.9994 65.1109C51.6537 65.1109 44.8882 71.8764 44.8882 80.222V85.1006ZM75.1105 88.6545C75.1064 87.8657 74.7048 87.1005 74.0233 86.5097C73.5689 86.1158 73.0177 85.8254 72.4438 85.674V91.659C73.0177 91.5076 73.5689 91.2172 74.0233 90.8233C74.7048 90.2325 75.1064 89.4672 75.1105 88.6784V88.6545ZM75.1105 92.2324C74.3277 92.8865 73.3469 93.3438 72.3166 93.4981C72.15 94.6144 71.8237 95.6785 71.3617 96.6665H72.4438C73.9166 96.6665 75.1105 95.4726 75.1105 93.9998V92.2324ZM69.358 96.6665C70.1899 95.2283 70.6661 93.5585 70.6661 91.7776V84.6665L70.6654 84.6653C70.6646 84.6642 70.6633 84.6626 70.6614 84.6606C70.6529 84.652 70.6392 84.6448 70.6219 84.644C65.87 84.4104 62.8246 82.3731 59.9994 79.3284C57.1742 82.3731 54.1287 84.4104 49.3769 84.644C49.3596 84.6448 49.3458 84.652 49.3373 84.6606C49.3354 84.6626 49.3342 84.6642 49.3334 84.6653L49.3327 84.6665V91.7776C49.3327 97.1777 53.7104 101.555 59.1105 101.555H60.8883C63.712 101.555 66.2561 100.358 68.041 98.4443L60.8882 98.4443C60.3973 98.4443 59.9994 98.0463 59.9994 97.5554C59.9994 97.0644 60.3973 96.6665 60.8882 96.6665L69.358 96.6665ZM47.5549 85.674C46.981 85.8254 46.4298 86.1158 45.9754 86.5097C45.2905 87.1035 44.8883 87.8735 44.8883 88.6665C44.8883 89.4595 45.2905 90.2295 45.9754 90.8233C46.4298 91.2172 46.981 91.5076 47.5549 91.659V85.674ZM55.5552 102.776L55.5552 104.275L59.9994 108.35L64.4438 104.275L64.4438 102.776C63.3237 103.138 62.1288 103.333 60.8883 103.333H59.1105C57.87 103.333 56.6753 103.138 55.5552 102.776ZM65.6235 105.606L60.6 110.211C60.2602 110.522 59.7386 110.522 59.3987 110.211L54.3755 105.606C53.7594 105.693 53.157 105.777 52.5701 105.86C50.3356 106.172 48.3263 106.453 46.6434 106.757C45.5339 106.957 44.5925 107.163 43.8413 107.386C43.0719 107.615 42.581 107.84 42.3134 108.042C41.8375 108.402 41.2722 109.144 40.6695 110.295C40.133 111.32 39.6025 112.599 39.0978 114.063L41.9273 116.893C42.602 117.568 43.6891 117.589 44.3902 116.942L48.2853 113.347C48.6311 113.028 49.1656 113.033 49.5046 113.359L53.8651 117.555L81.9619 117.555C81.3708 115.355 80.7067 113.36 80.0109 111.739C79.1804 109.805 78.3664 108.557 77.6857 108.042C77.418 107.84 76.9272 107.615 76.1578 107.386C75.4065 107.163 74.4651 106.957 73.3557 106.757C71.6727 106.453 69.6635 106.172 67.429 105.86C66.8421 105.777 66.2397 105.693 65.6235 105.606ZM91.1578 75.9662C91.4103 75.5612 91.9375 75.4278 92.3522 75.6641L98.2171 79.0054C98.6437 79.2485 98.7925 79.7912 98.5495 80.2178C98.3065 80.6443 97.7637 80.7931 97.3371 80.5501L93.6332 78.4399C94.8789 82.0651 95.5549 85.9544 95.5549 90C95.5549 98.0443 92.8824 105.467 88.3773 111.425C88.0812 111.817 87.5237 111.894 87.1321 111.598C86.7405 111.302 86.6631 110.744 86.9592 110.353C91.239 104.693 93.7771 97.644 93.7771 90C93.7771 85.9241 93.0556 82.0185 91.7338 78.4027L89.1981 82.4702C88.9384 82.8868 88.3902 83.014 87.9736 82.7543C87.557 82.4946 87.4298 81.9464 87.6895 81.5298L91.1578 75.9662ZM28.2477 94.2985L26.5967 95.9495L33.548 102.75L35.1814 101.116L28.2477 94.2985ZM32.2909 104.007L25.3396 97.2066L24.8123 97.7338C21.6881 100.858 21.6881 105.923 24.8123 109.048L41.0362 125.271C44.1604 128.396 49.2257 128.396 52.3499 125.271L52.7047 124.917L45.9625 117.91L45.596 118.248C44.1938 119.543 42.0197 119.499 40.6702 118.15L31.9231 109.403C30.5346 108.014 30.5346 105.763 31.9231 104.375L32.2909 104.007ZM47.2691 116.704L53.962 123.659L55.7678 121.854L48.8756 115.221L47.2691 116.704Z" fill="#F5FDFF"/>
<path d="M111.17 33.36C109.43 33.36 107.88 32.93 106.52 32.07C105.16 31.21 104.09 29.97 103.31 28.35C102.55 26.71 102.17 24.76 102.17 22.5C102.17 20.24 102.55 18.3 103.31 16.68C104.09 15.04 105.16 13.79 106.52 12.93C107.88 12.07 109.43 11.64 111.17 11.64C112.91 11.64 114.46 12.07 115.82 12.93C117.18 13.79 118.24 15.04 119 16.68C119.78 18.3 120.17 20.24 120.17 22.5C120.17 24.76 119.78 26.71 119 28.35C118.24 29.97 117.18 31.21 115.82 32.07C114.46 32.93 112.91 33.36 111.17 33.36ZM111.17 29.25C112.45 29.25 113.45 28.7 114.17 27.6C114.91 26.5 115.28 24.8 115.28 22.5C115.28 20.2 114.91 18.5 114.17 17.4C113.45 16.3 112.45 15.75 111.17 15.75C109.91 15.75 108.91 16.3 108.17 17.4C107.45 18.5 107.09 20.2 107.09 22.5C107.09 24.8 107.45 26.5 108.17 27.6C108.91 28.7 109.91 29.25 111.17 29.25ZM130.456 12V33H125.596V15.9H121.396V12L130.456 12Z" fill="#F5FDFF"/>
<defs>
<linearGradient id="paint0_linear" x1="5.1753e-07" y1="160" x2="158.688" y2="150.164" gradientUnits="userSpaceOnUse">
<stop stop-color="#4481EB"/>
<stop offset="1" stop-color="#04BEFE"/>
</linearGradient>
</defs>
</svg>
