<svg width="165" height="165" viewBox="0 0 165 165" fill="none" xmlns="http://www.w3.org/2000/svg">
<rect x="-1" y="1" width="148" height="148" transform="matrix(-1 0 0 1 148 15)" stroke="#43C8FF" stroke-width="2"/>
<rect x="15" width="150" height="150" fill="url(#paint0_linear)"/>
<g clip-path="url(#clip0)">
<path fill-rule="evenodd" clip-rule="evenodd" d="M119.666 98.8886C116.475 98.8886 113.888 101.475 113.888 104.666C113.888 107.857 116.475 110.444 119.666 110.444C122.857 110.444 125.444 107.857 125.444 104.666C125.444 101.475 122.857 98.8886 119.666 98.8886ZM112.11 104.666C112.11 100.494 115.493 97.1108 119.666 97.1108C123.839 97.1108 127.221 100.494 127.221 104.666C127.221 108.839 123.839 112.222 119.666 112.222C115.493 112.222 112.11 108.839 112.11 104.666Z" fill="#F5FDFF"/>
<path fill-rule="evenodd" clip-rule="evenodd" d="M74.7773 50.5905C74.7773 50.0996 75.1753 49.7017 75.6662 49.7017H116.555C116.791 49.7017 117.017 49.7953 117.184 49.962L135.85 68.6287C136.017 68.7954 136.111 69.0215 136.111 69.2572V128.813C136.111 129.304 135.713 129.702 135.222 129.702H75.6662C75.1753 129.702 74.7773 129.304 74.7773 128.813V50.5905ZM76.5551 51.4794V127.924H134.333V70.1461H116.555C116.064 70.1461 115.666 69.7481 115.666 69.2572V51.4794H76.5551ZM117.444 52.7365L133.076 68.3683H117.444V52.7365ZM91.4969 57.8013C91.8404 57.4734 92.3809 57.4734 92.7244 57.8013L102.502 67.1346C102.857 67.4736 102.87 68.0362 102.531 68.3913C102.192 68.7465 101.63 68.7595 101.275 68.4206L92.1107 59.6731L82.9467 68.4206C82.5915 68.7595 82.0289 68.7465 81.6899 68.3913C81.3509 68.0362 81.364 67.4736 81.7191 67.1346L91.4969 57.8013ZM84.8619 67.9948L91.5285 62.217C91.8626 61.9274 92.3587 61.9274 92.6928 62.217L99.3595 67.9948C99.5543 68.1636 99.6662 68.4087 99.6662 68.6665V77.5554C99.6662 78.0463 99.2683 78.4443 98.7773 78.4443H94.3329C93.842 78.4443 93.444 78.0463 93.444 77.5554V72.6665H90.7773V77.5554C90.7773 78.0463 90.3794 78.4443 89.8885 78.4443H85.444C84.9531 78.4443 84.5551 78.0463 84.5551 77.5554V68.6665C84.5551 68.4087 84.667 68.1636 84.8619 67.9948ZM86.3329 69.0724V76.6665H88.9996V71.7776C88.9996 71.2867 89.3975 70.8887 89.8885 70.8887H94.3329C94.8238 70.8887 95.2218 71.2867 95.2218 71.7776V76.6665H97.8885V69.0724L92.1107 64.065L86.3329 69.0724ZM81.8885 84.222C81.8885 83.7311 82.2864 83.3331 82.7773 83.3331H127.222C127.713 83.3331 128.111 83.7311 128.111 84.222C128.111 84.713 127.713 85.1109 127.222 85.1109H82.7773C82.2864 85.1109 81.8885 84.713 81.8885 84.222ZM81.8885 91.7776C81.8885 91.2867 82.2864 90.8887 82.7773 90.8887H105C105.49 90.8887 105.888 91.2867 105.888 91.7776C105.888 92.2685 105.49 92.6665 105 92.6665H82.7773C82.2864 92.6665 81.8885 92.2685 81.8885 91.7776ZM81.8885 101.111C81.8885 100.62 82.2864 100.222 82.7773 100.222H103.666C104.157 100.222 104.555 100.62 104.555 101.111C104.555 101.602 104.157 102 103.666 102H82.7773C82.2864 102 81.8885 101.602 81.8885 101.111ZM81.8885 110.444C81.8885 109.953 82.2864 109.555 82.7773 109.555H86.3329C86.8238 109.555 87.2218 109.953 87.2218 110.444C87.2218 110.935 86.8238 111.333 86.3329 111.333H82.7773C82.2864 111.333 81.8885 110.935 81.8885 110.444ZM92.5551 110.444C92.5551 109.953 92.9531 109.555 93.444 109.555H103.666C104.157 109.555 104.555 109.953 104.555 110.444C104.555 110.935 104.157 111.333 103.666 111.333H93.444C92.9531 111.333 92.5551 110.935 92.5551 110.444ZM114.777 114C115.268 114 115.666 114.398 115.666 114.889V123.81L119.143 121.281C119.455 121.054 119.877 121.054 120.189 121.281L123.666 123.81V114.889C123.666 114.398 124.064 114 124.555 114C125.046 114 125.444 114.398 125.444 114.889V125.555C125.444 125.89 125.256 126.196 124.958 126.347C124.661 126.499 124.303 126.471 124.032 126.274L119.666 123.099L115.3 126.274C115.03 126.471 114.672 126.499 114.374 126.347C114.076 126.196 113.888 125.89 113.888 125.555V114.889C113.888 114.398 114.286 114 114.777 114ZM81.8885 119.778C81.8885 119.287 82.2864 118.889 82.7773 118.889H108.111C108.602 118.889 109 119.287 109 119.778C109 120.269 108.602 120.666 108.111 120.666H82.7773C82.2864 120.666 81.8885 120.269 81.8885 119.778Z" fill="#F5FDFF"/>
<path fill-rule="evenodd" clip-rule="evenodd" d="M118.429 92.6273C119.119 91.9595 120.214 91.9595 120.903 92.6273L122.14 93.826L123.775 93.2829C124.686 92.9804 125.673 93.4555 126.004 94.3563L126.599 95.9731L128.308 96.1932C129.26 96.3158 129.942 97.172 129.85 98.1273L129.684 99.8421L131.128 100.782C131.933 101.305 132.177 102.373 131.679 103.194L130.786 104.667L131.679 106.14C132.177 106.961 131.933 108.028 131.128 108.552L129.684 109.491L129.85 111.206C129.942 112.161 129.26 113.018 128.308 113.14L126.599 113.36L126.004 114.977C125.673 115.878 124.686 116.353 123.775 116.05L122.14 115.507L120.903 116.706C120.214 117.374 119.119 117.374 118.429 116.706L117.192 115.507L115.557 116.05C114.646 116.353 113.659 115.878 113.328 114.977L112.733 113.36L111.025 113.14C110.073 113.018 109.39 112.161 109.482 111.206L109.648 109.491L108.204 108.552C107.399 108.028 107.156 106.961 107.653 106.14L108.547 104.667L107.653 103.194C107.156 102.373 107.399 101.305 108.204 100.782L109.648 99.8421L109.482 98.1273C109.39 97.172 110.073 96.3158 111.025 96.1932L112.733 95.9731L113.328 94.3563C113.659 93.4555 114.646 92.9804 115.557 93.2829L117.192 93.826L118.429 92.6273ZM119.666 93.9042L118.429 95.1029C117.953 95.5638 117.26 95.7219 116.631 95.5131L114.996 94.9701L114.402 96.5869C114.173 97.2087 113.617 97.6517 112.96 97.7363L111.252 97.9564L111.417 99.6712C111.481 100.331 111.173 100.971 110.617 101.332L109.173 102.272L110.067 103.745C110.41 104.311 110.41 105.022 110.067 105.588L109.173 107.062L110.617 108.001C111.173 108.363 111.481 109.003 111.417 109.662L111.252 111.377L112.96 111.597C113.617 111.682 114.173 112.125 114.402 112.747L114.996 114.363L116.631 113.82C117.26 113.611 117.953 113.77 118.429 114.231L119.666 115.429L120.904 114.231C121.379 113.77 122.072 113.611 122.701 113.82L124.336 114.363L124.931 112.747C125.159 112.125 125.715 111.682 126.372 111.597L128.081 111.377L127.915 109.662C127.851 109.003 128.16 108.363 128.715 108.001L130.159 107.062L129.266 105.588C128.922 105.022 128.922 104.311 129.266 103.745L130.159 102.272L128.715 101.332C128.16 100.971 127.851 100.331 127.915 99.6712L128.081 97.9564L126.372 97.7363C125.715 97.6517 125.159 97.2087 124.931 96.5869L124.336 94.9701L122.701 95.5131C122.072 95.7219 121.379 95.5638 120.904 95.1029L119.666 93.9042Z" fill="#F5FDFF"/>
</g>
<path d="M35.17 33.36C33.43 33.36 31.88 32.93 30.52 32.07C29.16 31.21 28.09 29.97 27.31 28.35C26.55 26.71 26.17 24.76 26.17 22.5C26.17 20.24 26.55 18.3 27.31 16.68C28.09 15.04 29.16 13.79 30.52 12.93C31.88 12.07 33.43 11.64 35.17 11.64C36.91 11.64 38.46 12.07 39.82 12.93C41.18 13.79 42.24 15.04 43 16.68C43.78 18.3 44.17 20.24 44.17 22.5C44.17 24.76 43.78 26.71 43 28.35C42.24 29.97 41.18 31.21 39.82 32.07C38.46 32.93 36.91 33.36 35.17 33.36ZM35.17 29.25C36.45 29.25 37.45 28.7 38.17 27.6C38.91 26.5 39.28 24.8 39.28 22.5C39.28 20.2 38.91 18.5 38.17 17.4C37.45 16.3 36.45 15.75 35.17 15.75C33.91 15.75 32.91 16.3 32.17 17.4C31.45 18.5 31.09 20.2 31.09 22.5C31.09 24.8 31.45 26.5 32.17 27.6C32.91 28.7 33.91 29.25 35.17 29.25ZM65.7613 28.59H62.3413V33H57.6013V28.59H46.2913V25.32L56.1913 12H61.2913L52.1113 24.63H57.7513L57.7513 20.7L62.3413 20.7L62.3413 24.63H65.7613V28.59Z" fill="#F5FDFF"/>
<defs>
<linearGradient id="paint0_linear" x1="15" y1="160" x2="173.688" y2="150.164" gradientUnits="userSpaceOnUse">
<stop stop-color="#4481EB"/>
<stop offset="1" stop-color="#04BEFE"/>
</linearGradient>
<clipPath id="clip0">
<rect width="80" height="80" fill="white" transform="translate(65 50)"/>
</clipPath>
</defs>
</svg>
