<svg width="165" height="165" viewBox="0 0 165 165" fill="none" xmlns="http://www.w3.org/2000/svg">
<rect x="-1" y="1" width="148" height="148" transform="matrix(-1 0 0 1 163 15)" stroke="#43C8FF" stroke-width="2"/>
<rect width="150" height="150" transform="matrix(-1 0 0 1 150 0)" fill="url(#paint0_linear)"/>
<path fill-rule="evenodd" clip-rule="evenodd" d="M27.2002 86.7999C27.2002 85.4744 28.2747 84.3999 29.6002 84.3999H63.2002C64.5257 84.3999 65.6002 85.4744 65.6002 86.7999V120.4C65.6002 121.725 64.5257 122.8 63.2002 122.8H29.6002C28.2747 122.8 27.2002 121.725 27.2002 120.4V86.7999ZM29.6002 85.9999C29.1584 85.9999 28.8002 86.3581 28.8002 86.7999V120.4C28.8002 120.842 29.1584 121.2 29.6002 121.2H63.2002C63.642 121.2 64.0002 120.842 64.0002 120.4V86.7999C64.0002 86.3581 63.642 85.9999 63.2002 85.9999H29.6002Z" fill="#F5FDFF"/>
<path fill-rule="evenodd" clip-rule="evenodd" d="M59.2002 52.4C59.2002 51.0745 60.2747 50 61.6002 50H75.2002C75.642 50 76.0002 50.3582 76.0002 50.8C76.0002 51.2418 75.642 51.6 75.2002 51.6H72.0002V79.6H59.2002V52.4ZM70.4002 51.6H61.6002C61.1584 51.6 60.8002 51.9582 60.8002 52.4V54.8H65.2002C65.642 54.8 66.0002 55.1582 66.0002 55.6C66.0002 56.0418 65.642 56.4 65.2002 56.4H60.8002V59.6H62.6002C63.042 59.6 63.4002 59.9582 63.4002 60.4C63.4002 60.8418 63.042 61.2 62.6002 61.2H60.8002V64.4H65.2002C65.642 64.4 66.0002 64.7582 66.0002 65.2C66.0002 65.6418 65.642 66 65.2002 66H60.8002V69.2H62.6002C63.042 69.2 63.4002 69.5582 63.4002 70C63.4002 70.4418 63.042 70.8 62.6002 70.8H60.8002V74H65.2002C65.642 74 66.0002 74.3582 66.0002 74.8C66.0002 75.2418 65.642 75.6 65.2002 75.6H60.8002V78H70.4002V51.6Z" fill="#F5FDFF"/>
<path fill-rule="evenodd" clip-rule="evenodd" d="M83.2002 52.4C83.2002 51.0745 84.2747 50 85.6002 50H96.8002C98.1257 50 99.2002 51.0745 99.2002 52.4V126.8C99.2002 128.125 98.1257 129.2 96.8002 129.2H85.6002C84.2747 129.2 83.2002 128.125 83.2002 126.8V52.4ZM84.8002 80.4H86.6002C87.042 80.4 87.4002 80.0418 87.4002 79.6C87.4002 79.1582 87.042 78.8 86.6002 78.8H84.8002V75.6H89.2002C89.642 75.6 90.0002 75.2418 90.0002 74.8C90.0002 74.3582 89.642 74 89.2002 74H84.8002V70.8H86.6002C87.042 70.8 87.4002 70.4418 87.4002 70C87.4002 69.5582 87.042 69.2 86.6002 69.2H84.8002V66H89.2002C89.642 66 90.0002 65.6418 90.0002 65.2C90.0002 64.7582 89.642 64.4 89.2002 64.4H84.8002V61.2H86.6002C87.042 61.2 87.4002 60.8418 87.4002 60.4C87.4002 59.9582 87.042 59.6 86.6002 59.6H84.8002V56.4H89.2002C89.642 56.4 90.0002 56.0418 90.0002 55.6C90.0002 55.1582 89.642 54.8 89.2002 54.8H84.8002V52.4C84.8002 51.9582 85.1584 51.6 85.6002 51.6H96.8002C97.242 51.6 97.6002 51.9582 97.6002 52.4V126.8C97.6002 127.242 97.242 127.6 96.8002 127.6H85.6002C85.1584 127.6 84.8002 127.242 84.8002 126.8V124H89.2002C89.642 124 90.0002 123.642 90.0002 123.2C90.0002 122.758 89.642 122.4 89.2002 122.4H84.8002V119.2H86.6002C87.042 119.2 87.4002 118.842 87.4002 118.4C87.4002 117.958 87.042 117.6 86.6002 117.6H84.8002V114H89.2002C89.642 114 90.0002 113.642 90.0002 113.2C90.0002 112.758 89.642 112.4 89.2002 112.4H84.8002V109.2H86.6002C87.042 109.2 87.4002 108.842 87.4002 108.4C87.4002 107.958 87.042 107.6 86.6002 107.6H84.8002V104.4H89.2002C89.642 104.4 90.0002 104.042 90.0002 103.6C90.0002 103.158 89.642 102.8 89.2002 102.8H84.8002V99.6H86.6002C87.042 99.6 87.4002 99.2418 87.4002 98.8C87.4002 98.3582 87.042 98 86.6002 98H84.8002V94.8H89.2002C89.642 94.8 90.0002 94.4418 90.0002 94C90.0002 93.5582 89.642 93.2 89.2002 93.2H84.8002V90H86.6002C87.042 90 87.4002 89.6418 87.4002 89.2C87.4002 88.7582 87.042 88.4 86.6002 88.4H84.8002V85.2H89.2002C89.642 85.2 90.0002 84.8418 90.0002 84.4C90.0002 83.9582 89.642 83.6 89.2002 83.6H84.8002V80.4Z" fill="#F5FDFF"/>
<path fill-rule="evenodd" clip-rule="evenodd" d="M37.5996 74.0001C37.5996 72.6746 38.6741 71.6001 39.9996 71.6001H52.7996C54.1251 71.6001 55.1996 72.6746 55.1996 74.0001V78.8001H53.5996V74.0001C53.5996 73.5583 53.2414 73.2001 52.7996 73.2001H39.9996C39.5578 73.2001 39.1996 73.5583 39.1996 74.0001V78.8001H37.5996V74.0001Z" fill="#F5FDFF"/>
<path fill-rule="evenodd" clip-rule="evenodd" d="M33.5996 103.6C33.5996 96.5306 39.3304 90.7998 46.3996 90.7998C53.4689 90.7998 59.1996 96.5306 59.1996 103.6C59.1996 110.669 53.4689 116.4 46.3996 116.4C39.3304 116.4 33.5996 110.669 33.5996 103.6ZM46.3996 92.3998C40.214 92.3998 35.1996 97.4142 35.1996 103.6C35.1996 109.785 40.214 114.8 46.3996 114.8C52.5852 114.8 57.5996 109.785 57.5996 103.6C57.5996 97.4142 52.5852 92.3998 46.3996 92.3998Z" fill="#F5FDFF"/>
<path fill-rule="evenodd" clip-rule="evenodd" d="M20.7998 86.8C20.7998 81.9399 24.7397 78 29.5998 78H71.9998V120.4C71.9998 125.26 68.0599 129.2 63.1998 129.2H29.5998C24.7397 129.2 20.7998 125.26 20.7998 120.4V86.8ZM29.5998 79.6C25.6234 79.6 22.3998 82.8236 22.3998 86.8V120.4C22.3998 124.376 25.6234 127.6 29.5998 127.6H63.1998C67.1763 127.6 70.3998 124.376 70.3998 120.4V79.6H29.5998Z" fill="#F5FDFF"/>
<path d="M111.17 33.36C109.43 33.36 107.88 32.93 106.52 32.07C105.16 31.21 104.09 29.97 103.31 28.35C102.55 26.71 102.17 24.76 102.17 22.5C102.17 20.24 102.55 18.3 103.31 16.68C104.09 15.04 105.16 13.79 106.52 12.93C107.88 12.07 109.43 11.64 111.17 11.64C112.91 11.64 114.46 12.07 115.82 12.93C117.18 13.79 118.24 15.04 119 16.68C119.78 18.3 120.17 20.24 120.17 22.5C120.17 24.76 119.78 26.71 119 28.35C118.24 29.97 117.18 31.21 115.82 32.07C114.46 32.93 112.91 33.36 111.17 33.36ZM111.17 29.25C112.45 29.25 113.45 28.7 114.17 27.6C114.91 26.5 115.28 24.8 115.28 22.5C115.28 20.2 114.91 18.5 114.17 17.4C113.45 16.3 112.45 15.75 111.17 15.75C109.91 15.75 108.91 16.3 108.17 17.4C107.45 18.5 107.09 20.2 107.09 22.5C107.09 24.8 107.45 26.5 108.17 27.6C108.91 28.7 109.91 29.25 111.17 29.25ZM132.048 20.55C133.888 20.85 135.298 21.54 136.278 22.62C137.258 23.68 137.748 25 137.748 26.58C137.748 27.8 137.428 28.93 136.788 29.97C136.148 30.99 135.168 31.81 133.848 32.43C132.548 33.05 130.948 33.36 129.048 33.36C127.568 33.36 126.108 33.17 124.668 32.79C123.248 32.39 122.038 31.83 121.038 31.11L122.928 27.39C123.728 27.99 124.648 28.46 125.688 28.8C126.748 29.12 127.828 29.28 128.928 29.28C130.148 29.28 131.108 29.05 131.808 28.59C132.508 28.11 132.858 27.44 132.858 26.58C132.858 24.86 131.548 24 128.928 24H126.708V20.79L131.028 15.9L122.088 15.9V12L136.788 12V15.15L132.048 20.55Z" fill="#F5FDFF"/>
<defs>
<linearGradient id="paint0_linear" x1="5.1753e-07" y1="160" x2="158.688" y2="150.164" gradientUnits="userSpaceOnUse">
<stop stop-color="#4481EB"/>
<stop offset="1" stop-color="#04BEFE"/>
</linearGradient>
</defs>
</svg>
