<svg width="165" height="165" viewBox="0 0 165 165" fill="none" xmlns="http://www.w3.org/2000/svg">
<rect x="-1" y="1" width="148" height="148" transform="matrix(-1 0 0 1 163 15)" stroke="#43C8FF" stroke-width="2"/>
<rect width="150" height="150" transform="matrix(-1 0 0 1 150 0)" fill="url(#paint0_linear)"/>
<path fill-rule="evenodd" clip-rule="evenodd" d="M44.0002 66C34.28 66 26.4002 73.8798 26.4002 83.6V86.7192C25.3004 87.6134 24.461 88.6443 24.1402 89.795C24 90.2978 24.1544 90.7756 24.4549 91.1043C24.7444 91.421 25.1637 91.6 25.6002 91.6H62.4002C62.8367 91.6 63.256 91.421 63.5455 91.1043C63.846 90.7756 64.0004 90.2978 63.8602 89.795C63.5394 88.6443 62.6999 87.6134 61.6002 86.7192V83.6C61.6002 73.8798 53.7204 66 44.0002 66ZM60.0002 85.6077V83.6C60.0002 76.1417 54.8971 69.8754 47.9921 68.102C48.2121 68.327 48.4172 68.5747 48.6045 68.8452L48.7285 69.0244C50.8589 72.1015 52.0002 75.7552 52.0002 79.4978V82.5542C53.5868 82.9237 55.1123 83.3891 56.5087 83.9299C57.7866 84.4248 58.9701 84.9881 60.0002 85.6077ZM28.0002 83.6C28.0002 76.1417 33.1033 69.8754 40.0083 68.102C39.7883 68.327 39.5832 68.5747 39.3959 68.8452L39.2719 69.0244C37.1415 72.1015 36.0002 75.7552 36.0002 79.4978V82.5542C34.4136 82.9237 32.8881 83.3891 31.4917 83.9299C30.2138 84.4248 29.0303 84.988 28.0002 85.6077V83.6ZM44.0002 81.6C41.9021 81.6 39.7182 81.8213 37.6002 82.2182V79.4978C37.6002 76.0806 38.6423 72.7447 40.5874 69.9351L40.7114 69.7559C42.302 67.4584 45.6984 67.4584 47.289 69.7559L47.413 69.9351C49.3581 72.7447 50.4002 76.0806 50.4002 79.4978V82.2182C48.2822 81.8213 46.0983 81.6 44.0002 81.6ZM60.3079 87.7389C61.3337 88.5142 61.9719 89.2854 62.2447 90H25.7557C26.0285 89.2854 26.6667 88.5142 27.6925 87.7389C28.8127 86.8923 30.3165 86.1008 32.0695 85.4219C35.5761 84.0639 39.9664 83.1999 44.0002 83.2C48.034 83.2 52.4243 84.064 55.9309 85.4219C57.6839 86.1008 59.1877 86.8923 60.3079 87.7389ZM25.6004 90H25.6002C25.5987 90 25.5988 89.9997 25.6004 90ZM27.6395 97.3778V91.6H29.4173V93.3675C30.2215 92.6955 31.2346 92.2313 32.2956 92.0898C32.2956 91.8958 32.3072 91.7342 32.3287 91.6H39.3619C37.7935 92.3467 36.0183 92.807 33.906 92.9108C33.8886 92.9117 33.8749 92.9189 33.8664 92.9275C33.8645 92.9294 33.8625 92.9322 33.8625 92.9322L33.8618 92.9333V100.044C33.8618 105.445 38.2394 109.822 43.6395 109.822H45.4173C50.8174 109.822 55.1951 105.445 55.1951 100.044V92.9333L55.1944 92.9322C55.1944 92.9322 55.1924 92.9294 55.1905 92.9275C55.182 92.9189 55.1683 92.9117 55.1509 92.9108C53.0386 92.807 51.2634 92.3467 49.6949 91.6H56.751C56.7668 91.7342 56.7709 91.8958 56.7612 92.0898C57.8223 92.2313 58.8353 92.6954 59.6395 93.3674V91.6H61.4173V96.9148L61.4173 96.9333L61.4173 96.9518V97.3778C61.4173 97.5091 61.3888 97.6338 61.3377 97.746C61.1254 98.8188 60.5081 99.7474 59.7169 100.433C58.9218 101.123 57.9102 101.605 56.8457 101.765C56.2905 105.484 53.9633 108.624 50.7507 110.298V112.162C51.2309 112.23 51.7046 112.296 52.1703 112.361L52.175 112.362L52.1751 112.362C54.42 112.676 56.4796 112.964 58.2004 113.274C59.3365 113.479 60.3511 113.698 61.1935 113.949C62.0178 114.194 62.7583 114.492 63.2865 114.891C63.8981 115.353 64.3363 116.036 64.6608 116.802C64.9878 117.575 65.2253 118.494 65.3994 119.505C65.7474 121.525 65.8617 124.03 65.8617 126.711C65.8617 126.947 65.7681 127.173 65.6014 127.34C65.4347 127.506 65.2086 127.6 64.9729 127.6H24.0891C23.8533 127.6 23.6272 127.506 23.4605 127.34C23.2938 127.173 23.2002 126.947 23.2002 126.711C23.2002 124.03 23.3145 121.525 23.6626 119.505C23.8367 118.494 24.0742 117.575 24.4012 116.802C24.7256 116.036 25.1639 115.353 25.7754 114.891C26.2584 114.526 26.9147 114.248 27.641 114.019C28.3816 113.784 29.2657 113.579 30.2531 113.388C32.0916 113.032 34.3648 112.714 36.8633 112.365L37.4109 112.288C37.7608 112.239 38.0613 112.197 38.3065 112.162V110.298C35.0937 108.624 32.7664 105.484 32.2112 101.765C31.1467 101.605 30.1351 101.123 29.34 100.433C28.5488 99.7475 27.9316 98.819 27.7193 97.7463C27.6681 97.634 27.6395 97.5092 27.6395 97.3778ZM59.6395 96.9195C59.6349 96.1314 59.2333 95.3669 58.5524 94.7765C58.098 94.3826 57.5468 94.0923 56.9729 93.9408V99.9258C57.5468 99.7744 58.098 99.4841 58.5524 99.0901C59.2333 98.4998 59.6349 97.7353 59.6395 96.9471V96.9195ZM32.084 93.9408C31.5101 94.0923 30.9589 94.3826 30.5045 94.7765C29.8196 95.3703 29.4173 96.1403 29.4173 96.9333C29.4173 97.7264 29.8196 98.4963 30.5045 99.0901C30.9589 99.4841 31.5101 99.7744 32.084 99.9258V93.9408ZM40.0843 111.043V112.542L44.5307 116.614L48.9729 112.542V111.043C47.8528 111.405 46.6579 111.6 45.4173 111.6H43.6395C42.3991 111.6 41.2043 111.405 40.0843 111.043ZM50.1526 113.873L45.1894 118.422C45.0137 118.614 44.7728 118.712 44.5317 118.711C44.3152 118.712 44.0985 118.634 43.9278 118.477L38.9048 113.873L38.8855 113.876C38.6014 113.916 38.1855 113.975 37.6574 114.049L37.1279 114.123C34.6095 114.475 32.3813 114.787 30.5905 115.133C29.6343 115.318 28.825 115.509 28.1771 115.714C27.515 115.923 27.0879 116.127 26.8472 116.309C26.5765 116.514 26.2959 116.887 26.0383 117.495C25.7832 118.098 25.5754 118.873 25.4145 119.806C25.129 121.464 25.0065 123.527 24.9825 125.822L44.5284 125.822L64.0794 125.822C64.0554 123.527 63.933 121.464 63.6474 119.806C63.4865 118.873 63.2787 118.098 63.0237 117.495C62.7661 116.887 62.4854 116.514 62.2147 116.309C61.9471 116.107 61.4562 115.882 60.6868 115.653C59.9356 115.429 58.9942 115.224 57.8847 115.024C56.2017 114.72 54.1925 114.439 51.958 114.126C51.3711 114.044 50.7687 113.96 50.1526 113.873Z" fill="#F5FDFF"/>
<path fill-rule="evenodd" clip-rule="evenodd" d="M47.082 53.9999C47.082 53.1162 47.7984 52.3999 48.682 52.3999H59.5056C60.3892 52.3999 61.1056 53.1162 61.1056 53.9999V56.2823C61.1056 57.1501 60.4146 57.8566 59.5528 57.8816L59.5528 57.8822V60.6231L69.4177 52.9504C69.9955 52.501 70.8045 52.501 71.3823 52.9504L91.843 68.8643L95.2336 71.2862C96.5002 72.1909 95.8602 74.1881 94.3036 74.1881H92.1647V88.3999C92.1647 88.8417 91.8065 89.1999 91.3647 89.1999C90.9229 89.1999 90.5647 88.8417 90.5647 88.3999V74.1881C90.5647 73.3045 91.281 72.5881 92.1647 72.5881H94.3036L90.8997 70.1568L90.8864 70.1473L90.8736 70.1373L70.4 54.2134L51.7651 68.7072C50.74 68.1925 49.686 67.7853 48.6352 67.4817V57.8822L48.6352 57.8816C47.7732 57.8568 47.082 57.1502 47.082 56.2823V53.9999ZM54.0001 106.8H68C68.4418 106.8 68.8 106.442 68.8 106C68.8 105.558 68.4418 105.2 68 105.2H54.6858L54.0001 106.8ZM57.9528 57.8823H50.2352V67.8702L57.9528 61.8676V57.8823ZM59.5056 56.2823H57.9613L57.9528 56.2822H50.2352L50.2266 56.2823H48.682V53.9999L59.5056 53.9999V56.2823ZM97.8413 111.955L90.6338 103.477C90.4973 103.317 90.3025 103.217 90.0925 103.2L87.7023 103.007C87.6992 103.006 87.6961 103.006 87.6931 103.006C87.6905 103.006 87.688 103.006 87.6853 103.006L86.1163 101.16L89.6756 97.6011L90.3125 98.238C90.6186 98.5441 91.1305 98.5441 91.4366 98.238L93.8345 95.8401C93.8805 95.7941 93.9205 95.7428 93.954 95.687L95.7525 92.6895C95.9402 92.3768 95.8908 91.9764 95.6329 91.7186L94.4341 90.5198C94.1762 90.2619 93.7759 90.2124 93.4632 90.4002L90.4657 92.1987C90.41 92.2321 90.3585 92.2722 90.3126 92.3182L87.9146 94.7162C87.6086 95.0222 87.6086 95.5343 87.9146 95.8402L88.5515 96.4771L85.0832 99.9455L81.3256 95.5257L82.7704 94.2974L89.4791 91.9195C89.9948 91.7367 90.174 91.0718 89.8183 90.6546L87.316 87.7204C86.0783 86.2647 84.3481 85.3781 82.4434 85.2238C80.5384 85.0695 78.6884 85.6664 77.2328 86.9039L69.7644 93.2535L69.6459 93.1141C69.2335 92.6288 68.6566 92.3332 68.0218 92.2818C67.3882 92.2307 66.7701 92.4293 66.2848 92.8419L64.8316 94.0774C63.8415 94.9192 63.7172 96.4479 64.5594 97.4385L70.7373 104.705C71.5786 105.695 73.1078 105.819 74.0984 104.977L75.5516 103.742C76.0641 103.306 76.3703 102.666 76.3906 101.994C76.4103 101.339 76.1536 100.768 75.7363 100.278L77.5309 98.7519L81.5496 103.479L80.0327 104.996L79.3959 104.359C79.2468 104.21 79.0447 104.126 78.8339 104.126H76.436C76.2252 104.126 76.0231 104.21 75.8739 104.359L68.006 112.227C67.0868 113.146 67.0867 114.68 68.0059 115.599L70.5536 118.147C71.4727 119.063 73.007 119.066 73.9257 118.147L81.7939 110.279C81.9429 110.13 82.0266 109.927 82.0266 109.717V107.319C82.0266 107.108 81.9429 106.906 81.7939 106.757L81.157 106.12L82.5829 104.694L84.2077 106.605L84.0688 108.321C84.0518 108.531 84.119 108.74 84.2555 108.9L91.4629 117.378C92.3034 118.366 93.8348 118.491 94.8239 117.65L97.5691 115.316C98.5592 114.475 98.6836 112.946 97.8413 111.955ZM91.3675 93.5115L93.749 92.0827L94.0702 92.404L92.6415 94.7854L90.8747 96.5522L89.6008 95.2783L91.3675 93.5115ZM72.8018 117.023C72.4916 117.333 71.9876 117.333 71.6777 117.023L69.13 114.475C68.8237 114.169 68.8238 113.657 69.1301 113.351L75.8366 106.644L79.5084 110.316L72.8018 117.023ZM80.4373 108.997L77.1562 105.716H78.505L79.4709 106.682L79.4711 106.682L79.4712 106.682L79.4714 106.682L80.4373 107.648V108.997ZM82.3156 86.8082C83.7969 86.9282 85.1428 87.6177 86.1061 88.7509L87.8596 90.8072L82.6181 92.665L78.5534 87.884C79.6361 87.0788 80.9584 86.6982 82.3156 86.8082ZM74.7997 101.989C74.7825 102.201 74.684 102.393 74.5224 102.53H74.5223L73.0689 103.766C72.7388 104.046 72.229 104.005 71.9487 103.675L65.7709 96.4086C65.4901 96.0784 65.5316 95.5688 65.8616 95.2883L67.3149 94.0528C67.6452 93.7719 68.1547 93.8136 68.4352 94.1435L74.613 101.41C74.7505 101.572 74.8168 101.777 74.7997 101.989ZM74.707 99.0665L70.7943 94.4643L77.334 88.9043L81.2467 93.5065L74.707 99.0665ZM78.7424 97.7222L80.1148 96.5552L86.331 103.867L84.9585 105.034L78.7424 97.7222ZM96.5397 114.105H96.5396L93.7944 116.439C93.4642 116.719 92.9546 116.678 92.6742 116.348L85.68 108.121L85.8202 106.387L87.9022 104.617L89.6359 104.758L96.6302 112.985C96.9111 113.315 96.8695 113.824 96.5397 114.105Z" fill="#F5FDFF"/>
<path d="M111.17 33.36C109.43 33.36 107.88 32.93 106.52 32.07C105.16 31.21 104.09 29.97 103.31 28.35C102.55 26.71 102.17 24.76 102.17 22.5C102.17 20.24 102.55 18.3 103.31 16.68C104.09 15.04 105.16 13.79 106.52 12.93C107.88 12.07 109.43 11.64 111.17 11.64C112.91 11.64 114.46 12.07 115.82 12.93C117.18 13.79 118.24 15.04 119 16.68C119.78 18.3 120.17 20.24 120.17 22.5C120.17 24.76 119.78 26.71 119 28.35C118.24 29.97 117.18 31.21 115.82 32.07C114.46 32.93 112.91 33.36 111.17 33.36ZM111.17 29.25C112.45 29.25 113.45 28.7 114.17 27.6C114.91 26.5 115.28 24.8 115.28 22.5C115.28 20.2 114.91 18.5 114.17 17.4C113.45 16.3 112.45 15.75 111.17 15.75C109.91 15.75 108.91 16.3 108.17 17.4C107.45 18.5 107.09 20.2 107.09 22.5C107.09 24.8 107.45 26.5 108.17 27.6C108.91 28.7 109.91 29.25 111.17 29.25ZM129.731 19.89C132.691 19.89 134.871 20.48 136.271 21.66C137.691 22.84 138.401 24.42 138.401 26.4C138.401 27.68 138.081 28.85 137.441 29.91C136.801 30.95 135.821 31.79 134.501 32.43C133.201 33.05 131.591 33.36 129.671 33.36C128.191 33.36 126.731 33.17 125.291 32.79C123.871 32.39 122.661 31.83 121.661 31.11L123.581 27.39C124.381 27.99 125.301 28.46 126.341 28.8C127.381 29.12 128.451 29.28 129.551 29.28C130.771 29.28 131.731 29.04 132.431 28.56C133.131 28.08 133.481 27.41 133.481 26.55C133.481 25.65 133.111 24.97 132.371 24.51C131.651 24.05 130.391 23.82 128.591 23.82H123.221L124.301 12L137.111 12V15.9L128.351 15.9L128.021 19.89H129.731Z" fill="#F5FDFF"/>
<defs>
<linearGradient id="paint0_linear" x1="5.1753e-07" y1="160" x2="158.688" y2="150.164" gradientUnits="userSpaceOnUse">
<stop stop-color="#4481EB"/>
<stop offset="1" stop-color="#04BEFE"/>
</linearGradient>
</defs>
</svg>
