<svg width="0" height="0" class="hidden">
  <symbol xmlns="http://www.w3.org/2000/svg" viewBox="0 0 24 24" id="watsapp">
    <path d="M20.488 3.5A11.918 11.918 0 0012.042 0C5.436 0 .084 5.333.084 11.917c0 2.083.585 4.166 1.588 5.916L0 24l6.355-1.667a12.226 12.226 0 005.687 1.417C18.648 23.75 24 18.417 24 11.833 23.916 8.75 22.746 5.75 20.488 3.5zm-2.676 12.667c-.251.666-1.422 1.333-2.007 1.416a4.687 4.687 0 01-1.84-.083c-.418-.167-1.003-.333-1.672-.667-3.01-1.25-4.934-4.25-5.101-4.5-.168-.166-1.255-1.583-1.255-3.083 0-1.5.753-2.167 1.004-2.5.25-.333.585-.333.836-.333h.585c.168 0 .418-.084.67.5.25.583.836 2.083.92 2.166a.53.53 0 010 .5 1.745 1.745 0 01-.335.5c-.168.167-.335.417-.418.5-.168.167-.335.334-.168.584.168.333.753 1.25 1.673 2.083 1.17 1 2.09 1.333 2.425 1.5.334.167.502.083.669-.083.167-.167.752-.834.92-1.167.167-.333.418-.25.669-.167.25.084 1.756.834 2.007 1 .334.167.502.25.585.334.084.25.084.833-.167 1.5z" ></path>
  </symbol>
  <symbol xmlns="http://www.w3.org/2000/svg" viewBox="0 0 26 23" id="telegramm">
    <path d="M.456 11.186l5.977 2.229 2.33 7.497c.102.507.71.608 1.115.304l3.343-2.735c.304-.304.811-.304 1.216 0l5.978 4.356c.405.304 1.013.102 1.114-.405l4.458-21.276c.101-.507-.405-1.013-.912-.81L.455 9.869c-.607.203-.607 1.114 0 1.317zm8.004 1.115l11.752-7.194c.203-.101.405.203.203.304l-9.625 9.017c-.304.304-.608.71-.608 1.216l-.304 2.431c0 .304-.506.406-.608 0l-1.216-4.457c-.304-.507-.1-1.115.406-1.317z"></path>
  </symbol>
  <symbol xmlns="http://www.w3.org/2000/svg" viewBox="0 0 24 18" id="youtube">
    <path d="M23.7 7.387c0-.512-.086-1.11-.086-1.792-.085-.683-.17-1.366-.256-1.963-.17-.683-.427-1.195-.94-1.622-.426-.427-1.024-.683-1.622-.768C18.832.986 15.928.9 12 .9c-3.929 0-6.918.086-8.797.342-.597.085-1.195.341-1.622.768-.427.427-.769.939-.94 1.622-.17.597-.256 1.195-.256 1.963C.3 6.278.3 6.875.3 7.387v3.926c0 .513.085 1.11.085 1.793.086.683.171 1.366.256 1.963.171.683.427 1.195.94 1.622.427.427 1.025.683 1.622.768 1.965.256 4.868.341 8.797.341 3.928 0 6.917-.085 8.796-.341.598-.085 1.196-.341 1.623-.768.427-.427.768-.94.94-1.622.17-.597.255-1.195.255-1.963.086-.683.086-1.28.086-1.793V7.387zm-7.174 2.646L9.78 14.216a.652.652 0 01-.427.17c-.17 0-.256 0-.427-.085a.896.896 0 01-.427-.768v-8.45c0-.342.171-.598.427-.768a.776.776 0 01.854 0l6.747 4.182c.256.17.427.427.427.683 0 .256-.17.683-.427.853z"></path>
  </symbol>
  <symbol xmlns="http://www.w3.org/2000/svg" viewBox="0 0 24 24" id="instagram">
    <path d="M20.37.3H3.63C1.74.3.3 1.74.3 3.63v16.74c0 1.89 1.44 3.33 3.33 3.33h16.74c1.89 0 3.33-1.44 3.33-3.33V3.63C23.7 1.74 22.26.3 20.37.3zM12 19.02c3.87 0 7.02-3.06 7.02-6.75 0-.63-.09-1.35-.27-1.89h1.98v9.54c0 .45-.36.9-.9.9H4.17c-.45 0-.9-.36-.9-.9v-9.63h2.07c-.18.63-.27 1.26-.27 1.89-.09 3.78 3.06 6.84 6.93 6.84zm0-2.7c-2.52 0-4.5-1.98-4.5-4.41S9.48 7.5 12 7.5s4.5 1.98 4.5 4.41c0 2.52-1.98 4.41-4.5 4.41zm8.64-9.63c0 .54-.45.99-.99.99h-2.52c-.54 0-.99-.45-.99-.99V4.26c0-.54.45-.99.99-.99h2.52c.54 0 .99.45.99.99v2.43z"></path>
  </symbol>
  <symbol xmlns="http://www.w3.org/2000/svg" viewBox="0 0 22 29" id="geo">
    <path d="M18.073 3.667C16.183 1.947 13.673 1 11 1c-2.672 0-5.183.948-7.072 2.667C.434 6.85 0 12.837 2.99 16.465L11 27l8-10.52c3.002-3.643 2.567-9.63-.928-12.813z" stroke-width="2"></path>
    <path d="M8.442 10.583c0 1.32 1.113 2.396 2.481 2.396 1.368 0 2.48-1.075 2.48-2.396 0-1.32-1.112-2.396-2.48-2.396-1.368 0-2.48 1.075-2.48 2.396z" stroke-width="2"></path>
  </symbol>
</svg>