<svg width="90" height="91" viewBox="0 0 90 91" fill="none" xmlns="http://www.w3.org/2000/svg">
<circle cx="45" cy="45.002" r="45" fill="#2F89CE"/>
<path d="M21.0391 45.8436L31.3848 49.7014L35.4178 62.6773C35.5932 63.554 36.6453 63.7294 37.3467 63.2033L43.1333 58.4689C43.6593 57.9428 44.5361 57.9428 45.2375 58.4689L55.5832 66.0089C56.2846 66.535 57.3367 66.1843 57.512 65.3075L65.2274 28.4839C65.4028 27.6072 64.526 26.7304 63.6493 27.0811L21.0391 43.5641C19.987 43.9148 19.987 45.4929 21.0391 45.8436ZM34.8918 47.7725L55.2324 35.3226C55.5831 35.1473 55.9339 35.6733 55.5832 35.8487L38.9249 51.4549C38.3988 51.9809 37.8727 52.6823 37.8727 53.5591L37.3467 57.7675C37.3467 58.2935 36.4699 58.4689 36.2946 57.7675L34.1904 50.052C33.6643 49.1753 34.0151 48.1232 34.8918 47.7725Z" fill="white"/>
</svg>
