<svg width="90" height="91" viewBox="0 0 90 91" fill="none" xmlns="http://www.w3.org/2000/svg">
<circle cx="45" cy="45.002" r="45" fill="#48C95F"/>
<path d="M62.8354 27.1426C58.3902 22.7129 52.4634 20.252 46.2073 20.252C33.2012 20.252 22.6646 30.752 22.6646 43.7129C22.6646 47.8145 23.8171 51.916 25.7927 55.3613L22.5 67.502L35.0122 64.2207C38.4695 66.0254 42.2561 67.0098 46.2073 67.0098C59.2134 67.0098 69.75 56.5098 69.75 43.5488C69.5854 37.4785 67.2805 31.5723 62.8354 27.1426ZM57.5671 52.0801C57.0732 53.3926 54.7683 54.7051 53.6159 54.8691C52.628 55.0332 51.311 55.0332 49.9939 54.7051C49.1707 54.377 48.0183 54.0488 46.7012 53.3926C40.7744 50.9316 36.9878 45.0254 36.6585 44.5332C36.3293 44.2051 34.189 41.416 34.189 38.4629C34.189 35.5098 35.6707 34.1973 36.1646 33.541C36.6585 32.8848 37.3171 32.8848 37.811 32.8848C38.1402 32.8848 38.6341 32.8848 38.9634 32.8848C39.2927 32.8848 39.7866 32.7207 40.2805 33.8691C40.7744 35.0176 41.9268 37.9707 42.0915 38.1348C42.2561 38.4629 42.2561 38.791 42.0915 39.1191C41.9268 39.4473 41.7622 39.7754 41.4329 40.1035C41.1037 40.4316 40.7744 40.9238 40.6097 41.0879C40.2805 41.416 39.9512 41.7441 40.2805 42.2363C40.6098 42.8926 41.7622 44.6973 43.5732 46.3379C45.878 48.3066 47.689 48.9629 48.3476 49.291C49.0061 49.6191 49.3354 49.4551 49.6646 49.127C49.9939 48.7988 51.1463 47.4863 51.4756 46.8301C51.8049 46.1738 52.2988 46.3379 52.7927 46.502C53.2866 46.666 56.25 48.1426 56.7439 48.4707C57.4024 48.7988 57.7317 48.9629 57.8963 49.127C58.061 49.6191 58.061 50.7676 57.5671 52.0801Z" fill="white"/>
</svg>
